<?xml version="1.0" encoding="UTF-8" standalone="no"?>
<!DOCTYPE svg PUBLIC "-//W3C//DTD SVG 1.1//EN" "http://www.w3.org/Graphics/SVG/1.1/DTD/svg11.dtd">
<svg width="100%" height="100%" viewBox="0 0 3513 2484" version="1.1" xmlns="http://www.w3.org/2000/svg" xmlns:xlink="http://www.w3.org/1999/xlink" xml:space="preserve" xmlns:serif="http://www.serif.com/" style="fill-rule:evenodd;clip-rule:evenodd;stroke-miterlimit:2;">
    <g transform="matrix(4.16667,0,0,4.16667,0,0)">
        <path d="M630.576,158.217C636.724,161.055 644.763,169.567 644.291,176.66L640.507,176.66L636.724,176.66L637.197,176.188L637.197,175.715L637.197,175.242L637.197,174.769L637.197,174.296L637.197,173.823L637.197,173.35L637.197,172.877L637.197,172.404L637.197,171.931L637.197,171.459L637.197,170.986L637.197,170.513L637.197,170.04L636.724,169.567L636.724,169.094L636.724,168.621L636.724,168.148L636.251,167.676L636.251,167.202L636.251,166.73L635.778,166.257L635.778,165.784L635.305,165.311L635.305,164.838L635.305,164.365L634.832,163.892L634.832,163.419L634.359,163.419L634.359,162.946L633.887,162.473L633.887,162.001L633.421,161.528L632.941,161.055L632.941,160.582L632.468,160.109L631.995,159.636L631.522,159.163L631.049,158.69L630.576,158.217Z" style="fill:rgb(35,31,32);"/>
        <path d="M640.507,176.66L644.291,176.66C646.182,186.119 634.832,195.104 626.793,197.468C632.468,193.212 636.724,186.591 636.251,179.025C636.251,178.079 636.724,177.606 636.724,176.66L640.507,176.66Z" style="fill:rgb(35,31,32);"/>
        <path d="M632.468,157.744C638.616,162.001 642.399,169.094 642.399,176.188C642.399,184.7 636.724,192.739 628.212,196.995" style="fill:none;stroke:rgb(35,31,32);stroke-width:0.22px;"/>
        <path d="M640.507,148.759C649.492,155.38 655.167,165.784 655.167,176.188C655.167,188.956 647.128,200.778 634.359,206.926" style="fill:none;stroke:rgb(35,31,32);stroke-width:0.22px;"/>
        <path d="M638.616,149.232C647.128,153.961 658.005,166.257 657.532,176.66L653.749,176.66L649.965,176.66L649.965,176.188L649.965,175.715L649.965,175.242L649.965,174.769L649.965,174.296L649.965,173.823L649.965,173.35L649.965,172.877L649.965,172.404L649.965,171.931L649.965,171.459L649.965,170.986L649.965,170.513L649.965,170.04L649.965,169.567L649.965,169.094L649.492,168.621L649.492,168.148L649.492,167.676L649.492,167.202L649.492,166.73L649.02,166.257L649.02,165.784L649.02,165.311L649.02,164.838L648.547,164.838L648.547,164.365L648.547,163.892L648.074,163.419L648.074,162.946L648.074,162.473L647.601,162.001L647.601,161.528L647.601,161.055L647.128,160.582L647.128,160.109L646.655,159.636L646.655,159.163L646.182,158.69L645.709,158.217L645.709,157.744L645.236,157.271L645.236,156.799L644.763,156.326L644.291,155.853L644.291,155.38L643.818,154.907L643.352,154.434L642.872,153.961L642.872,153.488L642.399,153.015L641.926,152.542L641.453,152.07L640.98,151.597L640.507,151.124L640.034,150.651L640.034,150.178L639.561,150.178L639.089,149.705L638.616,149.232Z" style="fill:rgb(35,31,32);"/>
        <path d="M653.749,176.66L657.532,176.66C658.95,190.375 644.763,203.143 632.941,207.399C645.709,199.36 647.601,190.375 649.965,176.66L653.749,176.66Z" style="fill:rgb(35,31,32);"/>
        <path d="M233.338,140.247L378.52,140.247C400.746,140.247 408.786,156.799 413.042,167.202C432.431,212.128 490.123,177.133 536.468,194.631C583.286,212.128 579.502,283.063 540.724,349.743L488.705,349.743C490.123,334.137 491.542,337.92 500.054,332.718C505.264,306.236 468.843,284.009 444.726,305.763C436.695,312.384 437.633,332.718 437.167,349.743L386.086,349.743C382.303,336.502 386.086,335.083 398.855,327.044C401.692,296.778 375.209,244.285 339.742,240.03C286.776,232.936 236.176,252.325 233.338,140.247Z" style="fill:white;"/>
        <path d="M378.52,139.774L374.264,139.774L370.48,139.774L366.224,139.774L361.495,139.774L357.239,139.774L352.51,139.774L347.788,139.774L343.525,139.774L338.33,139.774L333.594,139.774L328.872,139.774L324.136,139.774L318.941,139.774L314.205,139.774L309.01,139.774L304.274,139.774L299.552,139.774L294.343,139.774L289.621,139.774L284.885,139.774L280.156,139.774L275.427,139.774L270.698,139.774L265.968,139.774L261.712,139.774L256.983,139.774L252.727,139.774L248.944,139.774L244.688,139.774L240.905,139.774L237.121,139.774L233.338,139.774L233.338,140.72L378.52,140.72L378.52,139.774Z" style="fill:rgb(35,31,32);"/>
        <path d="M415.879,167.202L415.406,166.257L414.933,165.311L414.461,164.365L413.988,162.946L413.515,162.001L412.569,161.055L412.096,159.636L411.623,158.69L410.677,157.271L410.204,156.326L409.259,155.38L408.786,153.961L407.84,153.015L406.901,152.07L405.948,150.651L405.002,149.705L404.057,148.759L402.638,147.813L401.692,146.868L400.273,145.922L399.328,144.976L397.909,144.03L396.49,143.557L395.072,142.612L393.18,142.139L391.761,141.666L389.869,140.72L387.985,140.72L385.613,140.247L383.722,139.774L380.884,139.774L378.52,139.774L378.52,140.72L382.776,140.72L384.195,141.193L385.613,141.666L387.04,142.139L388.924,142.612L390.343,143.084L391.761,143.557L392.707,144.503L394.126,145.449L395.544,145.922L396.49,146.868L397.909,147.813L398.855,148.759L399.801,149.705L400.746,151.124L401.692,152.07L402.638,153.015L403.584,154.434L404.057,155.38L405.002,156.326L405.948,157.744L406.421,158.69L406.901,160.109L407.84,161.055L408.313,162.001L408.786,163.419L409.732,165.311L410.204,166.257L410.677,167.202L415.879,167.202Z" style="fill:rgb(35,31,32);"/>
        <path d="M538.833,194.158L534.104,192.739L529.847,191.32L525.126,190.375L519.916,189.902L515.195,188.956L509.986,188.956L505.264,188.483L500.054,188.483L495.325,188.956L490.596,188.956L485.875,189.429L481.138,189.429L476.417,189.902L472.153,190.375L467.897,190.375L463.641,190.848L459.858,190.848L456.082,190.848L452.293,190.848L448.983,190.375L446.153,190.375L442.835,189.429L439.525,188.956L436.214,188.01L433.377,186.591L430.066,184.7L427.236,182.808L424.865,180.444L422.027,178.079L419.662,174.769L417.771,171.459L415.879,167.202L410.677,167.202L412.569,171.459L414.461,174.769L416.833,178.079L419.662,180.917L422.5,183.281L425.337,185.173L428.648,187.064L431.958,188.483L435.268,189.429L439.052,190.375L443.308,190.848L447.091,191.32L451.347,191.793L465.06,191.793L469.316,191.32L474.045,191.32L478.301,190.848L483.03,190.375L487.286,190.375L491.542,189.902L512.823,189.902L517.079,190.375L521.335,191.32L525.599,192.266L529.847,193.212L534.104,194.631L538.833,194.158Z" style="fill:rgb(35,31,32);"/>
        <path d="M540.724,350.216L543.562,349.743L546.872,343.595L550.182,337.447L553.493,330.827L556.33,324.679L559.168,318.531L561.532,312.384L563.424,306.236L565.788,300.088L567.207,293.94L569.099,287.792L570.517,282.118L571.463,275.97L572.409,270.295L572.882,264.62L573.355,258.945L573.355,253.744L573.355,248.542L572.882,243.34L571.936,238.611L570.99,233.882L570.044,229.153L568.626,224.897L566.734,220.64L564.85,216.857L562.478,213.074L560.113,209.764L557.276,206.453L554.438,203.616L550.655,200.778L547.345,198.414L543.089,196.049L538.833,194.158L534.104,194.631L538.36,196.522L542.143,198.414L545.926,200.778L549.237,203.616L552.074,206.453L554.919,209.764L557.276,213.074L559.641,216.857L561.532,220.64L563.424,224.897L564.85,229.153L565.788,233.882L566.734,238.611L567.68,243.34L568.153,248.542L568.153,258.945L567.68,264.62L567.207,270.295L566.261,275.97L565.315,281.645L563.897,287.792L562.478,293.94L560.586,299.615L558.695,305.763L556.33,311.911L553.966,318.531L551.128,324.679L548.291,330.827L544.988,336.974L541.67,343.595L538.36,349.743L540.724,349.27L540.724,350.216L543.089,350.216L543.562,349.743L540.724,350.216Z" style="fill:rgb(35,31,32);"/>
        <path d="M485.875,349.743L488.705,350.216L540.724,350.216L540.724,349.27L539.306,349.27L537.887,349.27L535.995,349.27L534.576,349.27L532.685,349.27L531.266,349.27L529.375,349.27L527.956,349.27L526.064,349.27L524.645,349.27L522.754,349.27L520.862,349.27L519.444,349.27L517.552,349.27L516.133,349.27L514.241,349.27L512.35,349.27L510.931,349.27L509.04,349.27L507.621,349.27L505.737,349.27L504.311,349.27L502.419,349.27L501,349.27L499.109,349.27L497.69,349.27L496.271,349.27L494.38,349.27L492.961,349.27L491.542,349.27L490.123,349.27L488.705,349.27L491.069,349.743L485.875,349.743L485.875,350.216L488.705,350.216L485.875,349.743Z" style="fill:rgb(35,31,32);"/>
        <path d="M497.217,332.718L497.69,332.718L496.744,333.191L496.271,333.664L495.325,333.664L494.853,334.137L494.38,334.61L493.434,334.61L492.961,335.083L492.488,335.083L492.015,335.556L491.542,335.556L491.069,336.028L490.596,336.028L490.123,336.502L489.651,336.974L489.178,336.974L488.705,337.447L488.705,337.92L488.232,338.393L488.232,338.866L487.759,339.339L487.759,339.812L487.286,340.285L487.286,341.703L486.813,342.649L486.813,344.541L486.348,345.487L486.348,348.324L485.875,349.743L491.069,349.743L491.542,348.324L491.542,346.905L491.542,345.487L492.015,344.541L492.015,343.595L492.015,342.649L492.488,341.703L492.488,341.231L492.488,340.285L492.961,339.812L492.961,339.339L493.434,338.866L493.434,338.393L493.907,337.92L493.907,337.447L494.38,337.447L494.853,336.974L495.325,336.502L495.806,336.502L495.806,336.028L496.271,336.028L496.744,335.556L497.69,335.556L498.163,335.083L499.109,334.61L499.582,334.61L500.054,334.137L501,333.664L501.473,333.191L502.419,332.718L497.217,332.718Z" style="fill:rgb(35,31,32);"/>
        <path d="M446.626,305.763L448.983,303.871L451.347,302.452L453.71,301.034L456.082,299.615L458.439,299.142L460.803,298.196L463.168,297.724L465.06,297.724L466.486,297.251L468.37,297.724L470.261,297.724L472.153,298.196L474.518,298.669L476.417,299.142L478.774,300.088L481.138,301.507L483.03,302.452L484.922,303.871L486.813,305.29L488.705,306.709L490.123,308.6L492.015,310.492L493.434,312.384L494.38,314.275L495.325,316.167L496.271,318.531L497.217,320.896L497.69,323.26L497.69,330.354L497.217,332.718L502.419,332.718L502.892,330.354L502.892,327.989L502.892,325.625L502.892,323.26L502.419,320.896L501.473,318.531L500.528,316.167L499.582,314.275L498.163,312.384L496.744,310.019L495.325,308.6L493.907,306.709L492.015,304.817L490.123,303.398L487.759,301.98L485.875,301.034L483.503,299.615L481.138,298.669L478.774,298.196L475.944,297.251L473.099,296.778L469.789,296.778L466.486,296.305L463.168,296.778L459.858,296.778L457.02,297.724L454.183,298.196L451.347,299.615L448.983,300.561L446.626,301.98L444.254,303.871L441.889,305.763L446.626,305.763Z" style="fill:rgb(35,31,32);"/>
        <path d="M437.167,350.216L439.997,349.743L439.997,348.324L439.997,346.433L439.997,345.014L439.997,343.122L439.997,341.703L439.997,339.812L439.997,338.393L439.997,336.502L440.47,335.083L440.47,333.191L440.47,331.773L440.47,330.354L440.47,328.462L440.47,327.044L440.943,325.625L440.943,323.733L440.943,322.315L441.416,320.896L441.416,319.477L441.416,318.058L441.889,316.64L442.362,315.694L442.362,314.275L442.835,313.329L443.308,311.911L443.781,310.965L444.254,310.019L444.726,309.073L445.199,308.127L445.672,307.181L446.153,306.709L446.626,305.763L441.889,305.763L441.416,306.236L440.47,307.181L439.997,308.127L439.525,309.073L439.052,310.019L438.579,310.965L438.106,311.911L437.633,312.856L437.167,314.275L437.167,315.694L436.695,316.64L436.695,318.058L436.214,319.477L436.214,320.896L435.741,322.315L435.741,325.625L435.268,327.044L435.268,335.083L434.795,336.502L434.795,349.743L437.167,349.27L437.167,350.216L439.997,350.216L439.997,349.743L437.167,350.216Z" style="fill:rgb(35,31,32);"/>
        <path d="M383.722,349.743L386.086,350.216L437.167,350.216L437.167,349.27L386.086,349.27L388.924,349.743L383.722,349.743L383.722,350.216L386.086,350.216L383.722,349.743Z" style="fill:rgb(35,31,32);"/>
        <path d="M396.017,327.044L396.49,327.044L395.072,327.516L394.126,328.462L392.707,328.935L391.761,329.881L390.815,330.354L389.869,330.827L389.397,331.299L388.451,332.245L387.512,332.718L387.04,333.191L386.086,333.664L385.613,334.137L385.14,334.61L384.668,335.556L384.195,336.028L383.722,336.502L383.249,336.974L383.249,337.447L382.776,338.393L382.776,338.866L382.303,339.812L382.303,344.541L382.776,345.487L382.776,346.433L383.249,347.378L383.249,348.797L383.722,349.743L388.924,349.743L388.451,348.324L388.451,347.378L387.985,346.433L387.985,345.487L387.512,344.541L387.512,343.595L387.512,342.649L387.512,341.703L387.512,341.231L387.512,340.285L387.512,339.812L387.985,338.866L387.985,338.393L388.451,337.92L388.451,336.974L388.924,336.502L389.397,336.028L389.869,335.556L390.343,335.083L390.815,334.61L391.288,334.137L391.761,333.664L392.707,332.718L393.653,332.245L394.126,331.773L395.072,331.299L396.017,330.827L396.97,329.881L397.909,329.408L398.855,328.935L400.273,327.989L401.219,327.516L401.219,327.044L396.017,327.044Z" style="fill:rgb(35,31,32);"/>
        <path d="M338.33,240.502L341.16,240.975L343.998,241.448L347.308,242.394L350.146,243.813L352.983,245.231L356.293,247.123L359.131,249.015L361.968,251.379L364.333,253.744L367.17,256.108L369.535,258.945L372.372,261.783L374.736,264.62L376.628,267.458L378.993,270.768L380.884,274.078L382.776,277.389L384.668,280.699L386.559,284.009L387.985,287.32L389.397,291.103L390.815,294.413L392.234,298.196L393.18,301.507L394.126,304.817L395.072,308.127L395.544,311.438L396.017,314.748L396.017,318.058L396.49,321.369L396.49,324.206L396.017,327.044L401.219,327.044L401.692,324.206L401.692,321.369L401.219,318.058L401.219,314.748L400.746,311.438L400.273,308.127L399.328,304.817L398.382,301.507L397.443,297.724L396.017,294.413L394.598,291.103L393.18,287.32L391.761,284.009L389.869,280.699L387.985,277.389L386.086,274.078L384.195,270.768L381.83,267.458L379.466,264.62L377.101,261.31L374.736,258.473L372.372,256.108L369.535,253.271L366.697,250.906L363.86,249.015L361.022,247.123L358.192,245.231L354.875,243.34L351.564,242.394L348.261,240.975L344.943,240.03L341.16,239.556L338.33,240.502Z" style="fill:rgb(35,31,32);"/>
        <path d="M233.338,139.774L230.973,140.247L231.446,150.651L231.919,159.636L232.865,168.621L233.811,176.66L235.23,183.754L237.121,190.375L239.013,196.522L240.905,202.197L243.269,207.399L246.106,211.655L248.944,215.912L251.781,219.222L255.092,222.532L258.402,225.369L261.712,227.734L265.495,229.626L269.286,231.517L273.062,232.936L277.318,234.355L281.574,235.301L286.303,236.246L295.761,237.192L300.491,237.665L305.22,238.138L309.949,238.138L314.678,238.611L319.407,238.611L324.136,239.084L328.872,239.556L333.594,239.556L338.33,240.502L341.16,239.556L335.958,239.084L330.756,238.611L326.027,238.138L320.825,237.665L316.096,237.665L311.367,237.192L306.638,237.192L302.382,236.719L297.653,236.246L293.87,235.773L289.621,235.301L285.357,234.355L281.574,233.409L277.791,232.463L274.008,231.044L270.224,229.153L266.441,227.261L263.131,224.897L259.828,222.059L256.983,219.222L254.146,215.438L251.308,211.655L248.471,206.926L246.106,202.197L244.215,196.522L242.323,190.375L240.439,183.754L239.013,176.66L238.067,168.621L237.121,159.636L236.176,150.651L236.176,140.247L233.338,140.72L233.338,139.774L230.973,139.774L230.973,140.247L233.338,139.774Z" style="fill:rgb(35,31,32);"/>
        <path d="M569.572,259.419L568.153,255.635C581.394,250.433 594.17,243.813 603.621,231.99C614.498,216.384 615.443,196.995 616.389,178.552C616.862,192.739 617.335,206.926 613.552,220.167C606.931,241.921 590.379,253.744 571.463,263.674L569.572,259.419Z" style="fill:rgb(35,31,32);"/>
        <path d="M567.68,259.891L571.936,259.891L571.936,259.419L567.68,259.891Z" style="fill:rgb(35,31,32);"/>
        <path d="M566.261,255.635L565.788,256.108L567.68,259.891L571.936,259.419L570.044,255.635L569.572,256.108L570.044,255.635L569.572,255.635L569.099,255.635L568.626,255.635L568.153,255.635L567.68,255.635L567.207,255.635L566.734,255.635L566.261,255.635L565.788,255.635L565.788,256.108L566.261,255.635Z" style="fill:rgb(35,31,32);"/>
        <path d="M601.256,231.99L600.31,232.936L599.365,233.882L598.892,234.827L597.946,235.773L597,236.719L596.054,237.665L595.108,238.611L593.69,239.556L592.744,240.502L591.798,241.448L590.852,242.394L589.906,242.867L588.488,243.813L587.542,244.759L586.596,245.231L585.177,246.177L584.239,246.65L582.813,247.596L581.867,248.069L580.921,249.015L579.502,249.487L578.557,249.96L577.138,250.906L575.719,251.379L574.781,251.852L573.355,252.325L572.409,252.798L570.99,253.744L569.572,254.216L568.626,254.689L567.207,255.162L566.261,255.635L569.572,256.108L570.99,255.635L572.409,255.162L573.828,254.216L574.781,253.744L576.192,253.271L577.138,252.798L578.557,252.325L579.976,251.379L580.921,250.906L582.34,250.433L583.286,249.96L584.712,249.015L585.65,248.542L587.069,247.596L588.015,247.123L589.434,246.177L590.379,245.704L591.798,244.759L592.744,244.285L593.69,243.34L594.635,242.394L596.054,241.448L597,240.975L597.946,240.03L598.892,239.084L599.837,238.138L600.783,237.192L601.729,236.246L602.675,235.301L603.621,233.882L604.566,232.936L605.512,231.99L605.512,231.517L605.039,231.517L604.566,231.517L604.101,231.517L603.621,231.517L603.148,231.517L602.675,231.517L602.202,231.517L601.729,231.517L601.256,231.517L601.256,231.99Z" style="fill:rgb(35,31,32);"/>
        <path d="M618.281,178.552L614.032,178.552L614.032,187.064L613.552,188.956L613.552,194.158L613.079,196.049L613.079,197.468L612.606,199.36L612.606,201.251L612.133,202.67L612.133,204.562L611.66,206.453L611.187,207.872L611.187,209.764L610.714,211.182L610.241,213.074L609.768,214.493L609.295,216.384L608.823,217.803L607.877,219.695L607.404,221.113L606.458,222.532L605.985,224.424L605.039,225.842L604.101,227.261L603.148,228.68L602.202,230.571L601.256,231.99L605.512,231.99L606.458,230.571L607.404,229.153L608.35,227.261L609.295,225.842L610.241,224.424L610.714,223.005L611.66,221.113L612.133,219.695L612.606,217.803L613.552,216.384L614.032,214.966L614.498,213.074L614.97,211.182L614.97,209.764L615.443,207.872L615.916,206.453L616.389,204.562L616.389,202.67L616.862,201.251L616.862,199.36L617.335,197.468L617.335,196.049L617.335,194.158L617.808,192.266L617.808,190.848L617.808,188.956L617.808,187.064L618.281,185.646L618.281,183.754L618.281,181.862L618.281,180.444L618.281,178.552L614.032,178.552L618.281,178.552L618.281,178.079L617.808,178.079L617.335,178.079L616.862,178.079L616.389,178.079L615.916,178.079L615.443,178.079L614.97,178.079L614.498,178.079L614.498,178.552L614.032,178.552L618.281,178.552Z" style="fill:rgb(35,31,32);"/>
        <path d="M615.443,220.167L615.916,219.222L616.389,217.803L616.389,216.384L616.862,214.966L617.335,214.02L617.335,212.601L617.335,211.182L617.808,210.237L617.808,208.818L618.281,207.399L618.281,205.98L618.281,205.035L618.281,203.616L618.753,202.197L618.753,200.778L618.753,199.36L618.753,198.414L618.753,196.995L618.753,195.577L618.753,194.158L618.753,193.212L618.753,191.793L618.753,190.375L618.753,188.956L618.753,187.537L618.753,186.591L618.753,185.173L618.753,183.754L618.753,182.335L618.753,180.917L618.281,179.971L618.281,178.552L614.032,178.552L614.498,179.971L614.498,202.197L614.032,203.616L614.032,207.399L613.552,208.818L613.552,211.182L613.079,212.601L613.079,214.02L612.606,214.966L612.606,216.384L612.133,217.803L611.66,219.222L611.66,220.64L615.443,220.64L615.443,220.167Z" style="fill:rgb(35,31,32);"/>
        <path d="M569.099,263.674L573.355,263.674L575.246,262.729L576.665,261.783L578.557,260.837L580.448,259.891L582.34,258.945L583.759,258L585.65,256.581L587.069,255.635L588.96,254.689L590.379,253.744L591.798,252.325L593.69,251.379L595.108,249.96L596.527,249.015L597.946,247.596L599.365,246.177L600.783,245.231L602.202,243.813L603.148,242.394L604.566,240.975L605.512,239.556L606.931,238.138L607.877,236.246L608.823,234.827L610.241,232.936L611.187,231.517L612.133,229.626L612.606,227.734L613.552,226.315L614.498,224.424L614.97,222.532L615.443,220.167L611.66,220.167L610.714,222.059L610.241,223.951L609.295,225.842L608.823,227.734L607.877,229.626L606.931,231.517L605.985,232.936L605.039,234.827L603.621,236.246L602.675,237.665L601.729,239.084L600.31,240.975L599.365,242.394L597.946,243.34L596.527,244.759L595.108,246.177L593.69,247.596L592.271,248.542L590.852,249.96L589.434,250.906L588.015,252.325L586.596,253.271L584.712,254.216L583.286,255.635L581.394,256.581L579.976,257.527L578.084,258.473L576.665,259.419L574.781,260.364L572.882,261.31L570.99,262.256L569.572,263.202L573.355,263.202L569.572,263.202L569.099,263.202L569.099,263.674L573.355,263.674L569.099,263.674Z" style="fill:rgb(35,31,32);"/>
        <path d="M569.572,259.419L567.68,259.891L569.099,263.674L573.355,263.202L571.936,259.419L569.572,259.419Z" style="fill:rgb(35,31,32);"/>
        <path d="M571.936,259.419L571.463,259.419L570.99,259.419L570.517,259.419L570.044,259.419L569.572,259.419L569.099,259.419L568.626,259.419L568.153,259.419L567.68,259.419L567.68,259.891L571.936,259.419Z" style="fill:rgb(35,31,32);"/>
        <path d="M413.042,350.689L409.732,348.324C416.352,338.393 421.554,327.044 426.283,315.694C432.904,300.088 440.943,277.389 435.741,260.837C440.47,272.66 438.106,287.792 435.741,300.561C431.485,318.058 425.337,336.974 416.833,352.58L413.042,350.689Z" style="fill:rgb(35,31,32);"/>
        <path d="M503.365,349.27L499.109,349.27C500.054,338.393 501.946,334.61 512.35,330.354L515.195,332.718L518.498,333.191L518.025,335.083C509.04,339.339 507.621,339.339 507.621,349.743L503.365,349.27Z" style="fill:rgb(35,31,32);"/>
        <path d="M512.35,330.354L512.35,330.827C513.769,319.95 510.458,310.492 508.567,300.088L510.458,299.615L512.35,299.142C515.668,310.965 519.444,320.423 518.498,333.191L515.195,332.718L512.35,330.354Z" style="fill:rgb(35,31,32);"/>
        <path d="M508.567,300.088C508.094,298.669 508.094,297.724 507.621,296.305L509.512,296.305L511.404,295.832C511.877,296.778 511.877,297.724 512.35,299.142L510.458,299.615L508.567,300.088Z" style="fill:rgb(35,31,32);"/>
        <path d="M509.512,296.305L507.621,296.305C506.675,288.266 505.737,279.28 507.621,271.241C509.986,264.148 514.715,259.891 518.971,254.216C516.133,258.473 512.823,262.729 510.458,267.458C507.148,276.443 509.512,286.847 511.404,295.832L509.512,296.305Z" style="fill:rgb(35,31,32);"/>
        <path d="M616.389,167.202C621.591,167.202 625.374,171.459 625.374,176.188C625.374,180.917 621.591,184.7 616.389,184.7C611.66,184.7 607.404,180.917 607.404,176.188C607.404,171.459 611.66,167.202 616.389,167.202Z" style="fill:rgb(35,31,32);"/>
        <path d="M249.424,148.759L250.835,155.38L250.37,155.38L249.897,155.38L249.424,155.38L248.944,155.38L248.471,155.38L247.998,155.38L247.525,155.38L247.052,155.38L246.579,155.38L246.106,155.38L245.634,155.38L245.16,155.38L244.688,155.853L244.215,155.853L244.215,156.326L243.742,156.326L243.269,156.799L242.796,157.271L242.796,157.744L242.323,158.217L242.323,158.69L241.85,158.69L241.85,160.109L241.377,160.582L241.377,161.528L240.905,162.001L240.905,164.838L240.439,165.311L240.439,164.838L240.439,164.365L239.966,163.892L239.493,163.419L239.493,162.946L239.013,162.473L239.013,162.001L238.54,161.528L238.54,161.055L238.54,160.582L238.54,160.109L238.54,159.636L238.067,159.163L238.067,158.69L238.067,158.217L237.594,157.744L237.594,156.799L237.594,156.326L237.594,155.853L237.594,155.38L237.594,154.907L238.067,154.434L238.067,153.961L238.067,153.488L238.54,153.015L238.54,152.542L238.54,152.07L238.54,151.597L239.013,151.124L239.013,150.651L239.493,150.178L239.493,149.705L239.966,149.232L240.439,148.759L240.439,148.286L240.905,147.813L241.377,147.813L241.85,147.341L241.85,146.868L242.323,146.868L242.796,146.395L242.796,145.922L243.269,145.449L243.742,145.449L244.215,144.976L244.688,144.503L245.16,144.503L246.106,144.03L246.106,143.557L247.052,143.557L247.525,143.084L247.998,142.612L249.424,148.759Z" style="fill:white;"/>
        <path d="M250.37,148.759L249.897,148.759L249.424,148.759L248.944,148.759L248.471,148.759L250.37,148.759Z" style="fill:rgb(35,31,32);"/>
        <path d="M249.897,155.853L251.781,155.38L250.37,148.759L248.471,148.759L249.897,155.38L251.781,155.38L249.897,155.38L249.897,155.853L251.781,155.853L251.781,155.38L249.897,155.853Z" style="fill:rgb(35,31,32);"/>
        <path d="M250.37,155.38L249.424,155.38L249.897,155.853L251.781,155.38L251.308,155.38L250.37,154.907L251.308,155.38L250.835,154.907L250.37,154.907L249.897,154.907L249.424,154.907L249.424,155.38L250.37,155.38Z" style="fill:rgb(35,31,32);"/>
        <path d="M249.897,155.38L250.37,155.38L250.37,154.907L249.897,154.907L249.424,154.907L248.944,154.907L248.944,155.38L249.897,155.38Z" style="fill:rgb(35,31,32);"/>
        <path d="M249.424,155.38L249.897,155.38L249.897,154.907L249.424,154.907L248.944,154.907L248.471,155.38L249.424,155.38Z" style="fill:rgb(35,31,32);"/>
        <path d="M249.424,155.38L249.424,154.907L248.944,154.907L248.471,154.907L248.471,155.38L249.424,155.38Z" style="fill:rgb(35,31,32);"/>
        <path d="M248.944,155.38L249.424,155.38L249.424,154.907L248.944,154.907L248.471,154.907L247.998,154.907L247.998,155.38L248.944,155.38Z" style="fill:rgb(35,31,32);"/>
        <path d="M248.471,155.38L248.944,155.38L248.944,154.907L248.471,154.907L247.998,154.907L247.525,154.907L247.525,155.38L248.471,155.38Z" style="fill:rgb(35,31,32);"/>
        <path d="M248.471,155.38L248.471,154.907L247.998,154.907L247.525,154.907L247.525,155.38L248.471,155.38Z" style="fill:rgb(35,31,32);"/>
        <path d="M247.998,155.38L248.471,155.38L248.471,154.907L247.998,154.907L247.525,154.907L247.052,154.907L247.052,155.38L247.998,155.38Z" style="fill:rgb(35,31,32);"/>
        <path d="M247.525,155.38L247.998,155.38L247.998,154.907L247.525,154.907L247.052,154.907L246.579,154.907L246.579,155.38L247.525,155.38Z" style="fill:rgb(35,31,32);"/>
        <path d="M247.052,155.38L247.525,155.38L247.525,154.907L247.052,154.907L246.579,154.907L246.579,155.38L246.106,155.38L247.052,155.38Z" style="fill:rgb(35,31,32);"/>
        <path d="M247.052,155.38L247.052,154.907L246.579,154.907L246.106,154.907L246.106,155.38L247.052,155.38Z" style="fill:rgb(35,31,32);"/>
        <path d="M246.579,155.38L247.052,155.38L247.052,154.907L246.579,154.907L246.106,154.907L245.634,154.907L245.634,155.38L246.579,155.38Z" style="fill:rgb(35,31,32);"/>
        <path d="M246.106,155.38L246.579,155.38L246.579,154.907L246.106,154.907L245.634,154.907L245.16,155.38L246.106,155.38Z" style="fill:rgb(35,31,32);"/>
        <path d="M247.052,155.38L246.106,155.38L246.106,154.907L245.16,155.38L246.106,154.907L245.634,154.907L245.16,154.907L245.16,155.38L247.052,155.38Z" style="fill:rgb(35,31,32);"/>
        <path d="M245.634,155.853L246.579,155.38L247.052,155.38L245.16,155.38L244.688,155.38L245.634,155.38L244.688,155.38L244.688,155.853L246.579,155.853L246.579,155.38L245.634,155.853Z" style="fill:rgb(35,31,32);"/>
        <path d="M245.16,155.853L245.634,155.853L245.634,155.38L245.16,155.38L244.688,155.38L244.215,155.38L244.215,155.853L245.16,155.853Z" style="fill:rgb(35,31,32);"/>
        <path d="M246.106,155.38L245.16,155.853L245.16,155.38L244.215,155.38L245.16,155.38L244.688,155.38L244.215,155.38L244.215,155.853L245.16,155.853L246.106,155.38Z" style="fill:rgb(35,31,32);"/>
        <path d="M244.688,155.853L245.634,155.853L246.106,155.38L244.215,155.38L243.742,155.853L244.688,155.853L243.742,155.853L245.634,155.853L244.688,155.853Z" style="fill:rgb(35,31,32);"/>
        <path d="M245.16,155.853L244.215,155.853L244.688,155.853L244.215,155.853L243.269,155.853L244.215,155.853L243.742,155.853L243.269,155.853L245.16,155.853Z" style="fill:rgb(35,31,32);"/>
        <path d="M244.215,156.326L245.16,156.326L245.16,155.853L243.269,155.853L243.269,156.326L244.215,155.853L243.269,156.326L245.16,156.326L244.215,156.326Z" style="fill:rgb(35,31,32);"/>
        <path d="M244.688,156.326L243.742,156.326L244.215,156.326L244.215,155.853L243.742,155.853L243.269,156.326L243.742,155.853L243.269,155.853L243.269,156.326L242.796,156.326L244.688,156.326Z" style="fill:rgb(35,31,32);"/>
        <path d="M244.688,156.799L244.688,156.326L243.269,156.326L242.796,156.326L242.796,156.799L244.688,156.799Z" style="fill:rgb(35,31,32);"/>
        <path d="M244.215,156.799L244.688,156.799L242.796,156.326L242.323,156.799L242.796,156.799L242.796,157.271L243.742,157.271L243.742,156.799L244.215,156.799Z" style="fill:rgb(35,31,32);"/>
        <path d="M243.742,157.271L244.215,156.799L242.323,156.799L241.85,157.271L243.742,157.271Z" style="fill:rgb(35,31,32);"/>
        <path d="M243.742,157.744L243.742,157.271L241.85,157.271L241.85,157.744L241.85,157.271L241.85,157.744L243.742,157.744Z" style="fill:rgb(35,31,32);"/>
        <path d="M243.742,157.744L241.85,157.744L241.85,158.217L243.269,158.217L243.269,157.744L243.742,157.744Z" style="fill:rgb(35,31,32);"/>
        <path d="M243.269,158.217L243.742,157.744L241.85,157.744L241.377,158.217L243.269,158.217Z" style="fill:rgb(35,31,32);"/>
        <path d="M242.323,158.69L243.269,158.69L243.269,158.217L241.377,158.217L241.377,158.69L242.323,158.217L241.377,158.69L243.269,158.69L242.323,158.69Z" style="fill:rgb(35,31,32);"/>
        <path d="M242.796,158.69L241.85,158.69L242.323,158.69L242.323,158.217L241.85,158.217L240.905,158.69L241.85,158.217L241.377,158.217L240.905,158.217L240.905,158.69L242.796,158.69Z" style="fill:rgb(35,31,32);"/>
        <path d="M242.796,158.69L240.905,158.69L240.905,159.163L242.796,159.163L242.796,158.69Z" style="fill:rgb(35,31,32);"/>
        <path d="M242.796,159.163L242.796,158.69L240.905,158.69L240.905,159.163L242.796,159.163Z" style="fill:rgb(35,31,32);"/>
        <path d="M242.796,159.636L242.796,159.163L240.905,159.163L240.905,159.636L242.796,159.636Z" style="fill:rgb(35,31,32);"/>
        <path d="M242.796,159.636L240.905,159.636L240.905,160.109L242.796,160.109L242.796,159.636Z" style="fill:rgb(35,31,32);"/>
        <path d="M242.796,160.109L242.796,159.636L240.905,159.636L240.905,160.109L241.377,160.109L241.377,160.582L241.85,160.582L241.85,160.109L242.796,160.109Z" style="fill:rgb(35,31,32);"/>
        <path d="M242.323,160.582L242.796,160.109L240.905,160.109L240.439,160.582L242.323,160.582Z" style="fill:rgb(35,31,32);"/>
        <path d="M242.323,161.055L242.323,160.582L240.439,160.582L240.439,161.055L242.323,161.055Z" style="fill:rgb(35,31,32);"/>
        <path d="M242.323,161.055L240.439,161.055L240.905,161.528L241.85,161.528L241.85,161.055L242.323,161.055Z" style="fill:rgb(35,31,32);"/>
        <path d="M242.323,161.528L242.323,161.055L240.439,161.055L240.439,161.528L242.323,161.528Z" style="fill:rgb(35,31,32);"/>
        <path d="M241.85,162.001L242.323,161.528L240.439,161.528L239.966,162.001L241.85,162.001Z" style="fill:rgb(35,31,32);"/>
        <path d="M241.85,162.001L239.966,162.001L239.966,162.473L241.85,162.473L241.85,162.001Z" style="fill:rgb(35,31,32);"/>
        <path d="M241.85,162.473L241.85,162.001L239.966,162.001L239.966,162.473L241.85,162.473Z" style="fill:rgb(35,31,32);"/>
        <path d="M241.85,162.946L241.85,162.473L239.966,162.473L239.966,162.946L241.85,162.946Z" style="fill:rgb(35,31,32);"/>
        <path d="M241.85,162.946L239.966,162.946L239.966,163.419L241.85,163.419L241.85,162.946Z" style="fill:rgb(35,31,32);"/>
        <path d="M241.85,163.419L241.85,162.946L239.966,162.946L239.966,163.419L240.905,163.419L240.905,163.892L241.377,163.419L241.85,163.419Z" style="fill:rgb(35,31,32);"/>
        <path d="M241.85,163.892L241.85,163.419L239.966,163.419L239.966,164.365L241.85,164.365L241.85,163.892Z" style="fill:rgb(35,31,32);"/>
        <path d="M241.85,164.365L241.85,163.892L239.966,163.892L239.966,164.365L240.439,164.365L240.439,164.838L241.377,164.838L241.85,164.365Z" style="fill:rgb(35,31,32);"/>
        <path d="M241.85,164.838L241.85,164.365L239.966,164.365L239.966,164.838L241.85,164.838Z" style="fill:rgb(35,31,32);"/>
        <path d="M239.493,165.311L241.377,165.311L241.85,164.838L239.966,164.838L239.966,165.311L241.377,165.311L239.966,165.311L239.493,165.311L241.377,165.311L239.493,165.311Z" style="fill:rgb(35,31,32);"/>
        <path d="M239.966,164.838L239.493,164.838L239.493,165.311L241.377,165.311L241.377,164.838L240.905,164.838L240.905,164.365L240.439,164.365L240.439,164.838L239.966,164.838L239.493,164.838L239.966,164.838Z" style="fill:rgb(35,31,32);"/>
        <path d="M239.493,164.365L239.966,164.838L241.377,164.838L241.377,164.365L240.905,164.365L240.439,164.365L239.966,164.365L239.493,164.365Z" style="fill:rgb(35,31,32);"/>
        <path d="M239.013,163.892L239.013,164.365L241.377,164.365L240.905,163.892L240.439,163.892L239.966,163.892L239.493,163.892L239.013,163.892L239.013,164.365L239.013,163.892Z" style="fill:rgb(35,31,32);"/>
        <path d="M239.013,163.892L240.905,163.892L240.439,163.419L239.966,163.419L239.493,163.419L239.493,163.892L239.013,163.892Z" style="fill:rgb(35,31,32);"/>
        <path d="M238.54,163.419L239.013,163.892L240.905,163.892L240.439,163.419L239.966,163.419L239.493,163.419L239.013,163.419L238.54,163.419Z" style="fill:rgb(35,31,32);"/>
        <path d="M238.54,162.946L238.54,163.419L240.439,163.419L240.439,162.946L239.966,162.946L239.493,162.946L239.013,162.946L238.54,162.946Z" style="fill:rgb(35,31,32);"/>
        <path d="M238.54,162.946L240.439,162.946L239.966,162.473L239.493,162.473L239.013,162.473L238.54,162.473L238.54,162.946Z" style="fill:rgb(35,31,32);"/>
        <path d="M238.067,162.473L238.54,162.946L240.439,162.946L239.966,162.473L239.493,162.473L239.013,162.473L238.54,162.473L238.067,162.473Z" style="fill:rgb(35,31,32);"/>
        <path d="M238.067,162.001L238.067,162.473L239.966,162.473L239.966,162.001L239.966,161.528L239.493,161.528L239.013,161.528L238.54,161.528L238.067,161.528L238.067,162.001Z" style="fill:rgb(35,31,32);"/>
        <path d="M237.594,161.528L238.067,162.001L239.966,162.001L239.493,161.528L239.013,161.528L238.54,161.528L238.067,161.528L237.594,161.528Z" style="fill:rgb(35,31,32);"/>
        <path d="M237.594,161.055L237.594,161.528L239.493,161.528L239.493,161.055L239.013,161.055L238.54,161.055L238.067,161.055L237.594,161.055Z" style="fill:rgb(35,31,32);"/>
        <path d="M237.594,161.055L239.493,161.055L239.493,160.582L239.493,161.055L239.493,160.582L239.013,160.582L238.54,160.582L238.067,160.582L237.594,160.582L237.594,161.055Z" style="fill:rgb(35,31,32);"/>
        <path d="M237.594,160.582L237.594,161.055L239.493,160.582L239.013,160.582L239.013,160.109L238.54,160.109L238.067,160.109L237.594,160.582Z" style="fill:rgb(35,31,32);"/>
        <path d="M237.594,160.109L237.594,160.582L239.493,160.582L239.493,160.109L239.013,160.109L238.54,160.109L238.067,160.109L237.594,160.109Z" style="fill:rgb(35,31,32);"/>
        <path d="M237.594,159.636L237.594,160.109L239.493,160.109L239.493,159.636L239.013,159.636L238.54,159.636L238.067,159.636L237.594,159.636Z" style="fill:rgb(35,31,32);"/>
        <path d="M237.121,159.163L237.594,159.636L239.493,159.636L239.013,159.163L238.54,159.163L238.067,159.163L237.594,159.163L237.121,159.163Z" style="fill:rgb(35,31,32);"/>
        <path d="M237.121,158.69L237.121,159.163L239.013,159.163L239.013,158.69L238.54,158.69L238.067,158.69L237.594,158.69L237.121,158.69Z" style="fill:rgb(35,31,32);"/>
        <path d="M237.121,158.69L239.013,158.69L239.013,158.217L238.54,158.217L238.067,158.217L237.594,158.217L237.121,158.217L237.121,158.69Z" style="fill:rgb(35,31,32);"/>
        <path d="M237.121,158.217L237.121,158.69L239.013,158.69L239.013,158.217L238.54,158.217L238.067,158.217L237.594,158.217L237.121,158.217Z" style="fill:rgb(35,31,32);"/>
        <path d="M236.648,157.744L237.121,158.217L239.013,158.217L238.54,157.744L238.067,157.744L237.594,157.744L237.121,157.744L236.648,157.744Z" style="fill:rgb(35,31,32);"/>
        <path d="M236.648,157.744L238.54,157.744L238.54,157.271L238.067,157.271L237.594,157.271L237.121,157.271L236.648,157.271L236.648,157.744Z" style="fill:rgb(35,31,32);"/>
        <path d="M236.648,156.799L236.648,157.744L238.54,157.744L238.54,156.799L238.067,156.799L237.594,156.799L237.121,156.799L236.648,156.799Z" style="fill:rgb(35,31,32);"/>
        <path d="M236.648,156.326L236.648,156.799L238.54,156.799L238.54,156.326L238.067,156.326L237.594,156.326L237.121,156.326L236.648,156.326Z" style="fill:rgb(35,31,32);"/>
        <path d="M236.648,156.326L238.54,156.326L238.54,155.853L238.067,155.853L237.594,155.853L237.121,155.853L237.121,156.326L236.648,156.326Z" style="fill:rgb(35,31,32);"/>
        <path d="M236.648,155.853L236.648,156.326L238.54,156.326L238.54,155.853L238.067,155.853L237.594,155.853L237.121,155.853L236.648,155.853Z" style="fill:rgb(35,31,32);"/>
        <path d="M236.648,155.38L236.648,155.853L238.54,155.853L238.54,155.38L238.067,155.38L237.594,155.38L237.121,155.38L236.648,155.38Z" style="fill:rgb(35,31,32);"/>
        <path d="M236.648,154.907L236.648,155.38L238.54,155.38L238.54,154.907L238.067,154.907L237.594,154.907L237.121,154.907L236.648,154.907Z" style="fill:rgb(35,31,32);"/>
        <path d="M237.121,154.434L236.648,154.907L238.54,154.907L239.013,154.434L238.54,154.434L238.067,154.434L237.594,154.434L237.121,154.434Z" style="fill:rgb(35,31,32);"/>
        <path d="M237.121,154.434L239.013,154.434L239.013,153.961L238.54,153.961L238.067,153.961L237.594,153.961L237.121,153.961L237.121,154.434Z" style="fill:rgb(35,31,32);"/>
        <path d="M237.121,153.961L237.121,154.434L239.013,154.434L239.013,153.961L238.54,153.961L238.54,153.488L238.067,153.488L237.594,153.488L237.594,153.961L237.121,153.961Z" style="fill:rgb(35,31,32);"/>
        <path d="M237.121,153.488L237.121,153.961L239.013,153.961L239.013,153.488L238.54,153.488L238.067,153.488L237.594,153.488L237.121,153.488Z" style="fill:rgb(35,31,32);"/>
        <path d="M237.594,153.015L237.121,153.488L239.493,153.488L239.493,153.015L239.493,153.488L239.493,153.015L239.013,153.015L238.54,153.015L238.067,153.015L237.594,153.015Z" style="fill:rgb(35,31,32);"/>
        <path d="M237.594,152.542L237.594,153.015L239.493,153.015L239.493,152.542L239.013,152.542L238.54,152.542L238.067,152.542L237.594,152.542Z" style="fill:rgb(35,31,32);"/>
        <path d="M237.594,152.07L237.594,152.542L239.493,152.542L239.493,152.07L239.013,152.07L238.54,152.07L238.067,152.07L237.594,152.07Z" style="fill:rgb(35,31,32);"/>
        <path d="M237.594,152.07L239.493,152.07L239.493,151.597L239.013,151.597L238.54,151.597L238.067,151.597L237.594,152.07Z" style="fill:rgb(35,31,32);"/>
        <path d="M237.594,151.597L237.594,152.07L239.493,152.07L239.493,151.597L239.013,151.597L238.54,151.597L238.067,151.597L237.594,151.597Z" style="fill:rgb(35,31,32);"/>
        <path d="M238.067,151.124L237.594,151.597L239.493,151.597L239.966,151.124L239.493,151.124L239.013,151.124L238.54,151.124L238.067,151.124Z" style="fill:rgb(35,31,32);"/>
        <path d="M238.067,150.651L238.067,151.124L239.966,151.124L239.966,150.651L239.493,150.651L239.013,150.178L238.54,150.651L238.067,150.651Z" style="fill:rgb(35,31,32);"/>
        <path d="M238.54,150.178L238.067,150.651L239.966,150.651L240.439,150.178L239.966,150.178L239.493,150.178L239.013,150.178L238.54,150.178Z" style="fill:rgb(35,31,32);"/>
        <path d="M238.54,149.705L238.54,150.178L240.439,150.178L240.439,149.705L240.439,150.178L240.439,149.705L239.966,149.705L239.493,149.705L239.013,149.705L238.54,149.705Z" style="fill:rgb(35,31,32);"/>
        <path d="M238.54,149.705L240.439,150.178L240.439,149.705L240.439,149.232L239.966,149.232L239.493,149.232L239.013,149.232L239.013,149.705L238.54,149.705Z" style="fill:rgb(35,31,32);"/>
        <path d="M239.013,149.232L238.54,149.705L240.439,149.705L240.905,149.232L240.439,149.232L239.966,149.232L239.493,149.232L239.013,149.232Z" style="fill:rgb(35,31,32);"/>
        <path d="M239.493,148.759L239.013,149.232L240.905,149.232L241.377,148.759L240.905,148.759L240.439,148.759L239.966,148.759L239.493,148.759Z" style="fill:rgb(35,31,32);"/>
        <path d="M239.493,148.759L241.377,148.759L241.377,148.286L240.905,148.286L240.439,148.286L239.966,148.286L239.493,148.286L239.493,148.759Z" style="fill:rgb(35,31,32);"/>
        <path d="M239.966,148.286L239.493,148.759L241.377,148.759L241.377,148.286L240.905,148.286L240.439,148.286L239.966,148.286Z" style="fill:rgb(35,31,32);"/>
        <path d="M239.966,147.813L239.966,148.286L241.377,148.286L241.85,147.813L241.377,147.813L240.905,147.813L240.439,147.813L239.966,147.813Z" style="fill:rgb(35,31,32);"/>
        <path d="M240.439,147.813L239.966,147.813L242.323,147.813L242.323,147.341L241.85,147.341L241.377,147.341L240.905,147.341L240.439,147.341L240.439,147.813Z" style="fill:rgb(35,31,32);"/>
        <path d="M240.905,147.341L240.439,147.813L242.323,147.813L242.796,147.341L242.323,147.341L241.85,147.341L241.377,147.341L240.905,147.341Z" style="fill:rgb(35,31,32);"/>
        <path d="M240.905,146.868L240.905,147.341L242.796,147.341L242.796,146.868L242.323,146.868L241.85,146.868L241.377,146.868L240.905,146.868Z" style="fill:rgb(35,31,32);"/>
        <path d="M241.377,146.395L240.905,146.868L243.269,146.868L243.269,146.395L242.796,146.395L242.323,146.395L241.85,146.395L241.377,146.395Z" style="fill:rgb(35,31,32);"/>
        <path d="M241.85,146.395L241.377,146.395L243.269,146.868L243.742,146.395L243.269,146.395L243.269,145.922L242.796,145.922L242.323,145.922L241.85,145.922L241.85,146.395Z" style="fill:rgb(35,31,32);"/>
        <path d="M241.85,145.922L241.85,146.395L243.742,146.395L243.742,145.922L243.269,145.922L242.796,145.922L242.323,145.922L241.85,145.922Z" style="fill:rgb(35,31,32);"/>
        <path d="M242.323,145.449L241.85,145.922L243.742,145.922L244.215,145.449L243.742,145.449L243.269,145.449L242.796,145.449L242.323,145.449Z" style="fill:rgb(35,31,32);"/>
        <path d="M242.796,145.449L242.323,145.449L244.688,145.449L244.215,144.976L243.742,144.976L243.269,144.976L242.796,144.976L242.796,145.449Z" style="fill:rgb(35,31,32);"/>
        <path d="M243.269,144.976L242.796,145.449L244.688,145.449L245.16,144.976L244.688,144.976L244.215,144.976L243.742,144.976L243.269,144.976Z" style="fill:rgb(35,31,32);"/>
        <path d="M244.688,144.503L243.742,144.503L243.269,144.976L245.16,144.976L245.634,144.503L244.688,144.976L245.634,144.503L245.16,144.503L244.688,144.503L244.215,144.503L243.742,144.503L244.688,144.503Z" style="fill:rgb(35,31,32);"/>
        <path d="M244.215,144.503L245.16,144.503L244.688,144.503L244.688,144.976L245.16,144.976L246.106,144.503L245.16,144.976L245.634,144.976L245.634,144.503L246.106,144.503L245.634,144.503L245.16,144.503L244.215,144.503Z" style="fill:rgb(35,31,32);"/>
        <path d="M244.215,144.03L244.215,144.503L246.106,144.503L246.106,144.03L245.634,144.03L245.16,144.03L244.688,144.03L244.215,144.03L244.215,144.503L244.215,144.03Z" style="fill:rgb(35,31,32);"/>
        <path d="M245.16,144.03L244.215,144.03L246.106,144.503L247.052,144.03L246.579,144.03L246.106,144.03L245.634,144.03L245.16,144.03Z" style="fill:rgb(35,31,32);"/>
        <path d="M246.106,143.557L245.16,143.557L245.16,144.03L247.052,144.03L247.052,143.557L246.106,144.03L247.052,143.557L246.579,143.557L246.106,143.557L245.634,143.557L245.16,143.557L246.106,143.557Z" style="fill:rgb(35,31,32);"/>
        <path d="M245.634,143.557L246.579,143.557L246.106,143.557L246.106,144.03L246.579,144.03L247.525,143.557L246.579,144.03L247.525,144.03L247.525,143.557L247.052,143.557L246.579,143.557L245.634,143.557Z" style="fill:rgb(35,31,32);"/>
        <path d="M246.106,143.084L245.634,143.557L247.998,143.557L247.998,143.084L247.525,143.084L247.052,143.084L246.579,143.084L246.106,143.084Z" style="fill:rgb(35,31,32);"/>
        <path d="M246.579,143.084L246.106,143.084L247.998,143.557L248.471,143.084L247.998,143.084L247.998,142.612L247.525,142.612L247.052,142.612L247.052,143.084L246.579,143.084Z" style="fill:rgb(35,31,32);"/>
        <path d="M248.944,142.612L247.052,142.612L246.579,143.084L248.471,143.084L248.944,142.612L247.052,142.612L248.944,142.612L248.471,142.612L247.998,142.612L247.525,142.612L247.052,142.612L248.944,142.612Z" style="fill:rgb(35,31,32);"/>
        <path d="M249.424,148.759L250.37,148.759L248.944,142.612L247.052,142.612L248.471,148.759L249.424,148.759Z" style="fill:rgb(35,31,32);"/>
        <path d="M248.471,148.759L248.471,149.232L250.37,149.232L250.37,148.759L248.471,148.759Z" style="fill:rgb(35,31,32);"/>
        <path d="M403.111,349.743L398.855,350.216C399.801,339.812 403.584,335.083 413.515,332.718C406.901,337.447 405.002,341.703 406.901,349.27L403.111,349.743Z" style="fill:rgb(35,31,32);"/>
        <path d="M394.598,349.743L390.343,350.689C389.869,339.339 394.598,335.083 405.002,332.245C398.382,336.974 395.072,341.231 398.382,348.797L394.598,349.743Z" style="fill:rgb(35,31,32);"/>
        <path d="M514.715,349.743L510.458,350.216C510.931,339.812 516.133,335.556 526.064,332.245C520.389,336.974 515.668,341.703 518.971,349.27L514.715,349.743Z" style="fill:rgb(35,31,32);"/>
        <path d="M525.126,349.743L520.862,350.216C521.808,340.285 526.064,335.556 535.53,333.191C529.847,337.447 526.537,342.176 528.902,348.797L525.126,349.743Z" style="fill:rgb(35,31,32);"/>
        <path d="M593.217,203.616C584.712,198.887 573.828,186.591 574.308,176.188L581.867,176.188L581.867,184.227L582.34,184.7L582.34,186.591L582.813,186.591L582.813,188.01L583.286,188.483L583.286,189.429L583.759,189.902L583.759,190.848L584.239,191.32L584.239,191.793L584.712,192.266L584.712,192.739L585.177,193.212L585.177,193.685L585.65,193.685L585.65,194.158L586.123,194.631L586.123,195.104L586.596,195.577L586.596,196.049L587.069,196.522L587.069,196.995L587.542,197.468L588.015,197.468L588.015,197.941L588.488,198.414L588.96,198.887L588.96,199.36L589.434,199.833L589.906,200.306L590.379,200.778L590.852,201.251L591.325,201.724L591.325,202.197L591.798,202.197L592.271,202.67L592.744,203.143L593.217,203.616Z" style="fill:rgb(35,31,32);"/>
        <path d="M578.084,176.188L574.308,176.188C572.882,162.473 587.069,149.705 598.892,145.449C586.123,153.488 583.759,162.473 581.867,176.188L578.084,176.188Z" style="fill:rgb(35,31,32);"/>
        <rect x="383.549" y="349.697" width="55.808" height="3.204" style="fill:rgb(35,31,32);"/>
        <path d="M439.686,349.697L439.357,349.697L383.549,349.697L439.357,349.697L439.193,349.697L439.686,349.697L439.357,349.697L439.686,349.697Z" style="fill:rgb(35,31,32);"/>
        <path d="M439.357,352.901L439.686,352.901L439.686,349.697L439.193,349.697L439.193,352.901L439.686,352.901L439.357,352.901Z" style="fill:rgb(35,31,32);"/>
        <path d="M383.385,352.901L439.357,352.901L383.549,352.901L383.879,352.901L383.385,352.901L383.549,352.901L383.385,352.901Z" style="fill:rgb(35,31,32);"/>
        <path d="M383.549,349.697L383.385,349.697L383.385,352.901L383.879,352.901L383.879,349.697L383.549,349.697L383.385,349.697L383.549,349.697Z" style="fill:rgb(35,31,32);"/>
        <rect x="486.508" y="349.697" width="55.808" height="3.204" style="fill:rgb(35,31,32);"/>
        <path d="M542.646,349.697L542.316,349.697L486.508,349.697L542.316,349.697L542.152,349.697L542.646,349.697L542.316,349.697L542.646,349.697Z" style="fill:rgb(35,31,32);"/>
        <path d="M542.316,352.901L542.646,352.901L542.646,349.697L542.152,349.697L542.152,352.901L542.646,352.901L542.316,352.901Z" style="fill:rgb(35,31,32);"/>
        <path d="M486.344,352.901L542.316,352.901L486.508,352.901L486.838,352.901L486.344,352.901L486.508,352.901L486.344,352.901Z" style="fill:rgb(35,31,32);"/>
        <path d="M486.508,349.697L486.344,349.697L486.344,352.901L486.838,352.901L486.838,349.697L486.508,349.697L486.344,349.697L486.508,349.697Z" style="fill:rgb(35,31,32);"/>
        <path d="M312.786,153.488C318.941,153.488 323.663,157.744 323.663,162.001C323.663,167.202 318.941,170.513 312.786,170.513C306.165,170.513 301.436,167.202 301.436,162.001C301.436,157.744 306.165,153.488 312.786,153.488Z" style="fill:rgb(35,31,32);"/>
        <path d="M328.399,162.001L328.399,161.528L328.399,161.055L328.399,160.582L328.399,160.109L327.926,159.636L327.926,159.163L327.446,158.69L327.446,158.217L326.973,158.217L326.973,157.744L326.5,157.271L326.5,156.799L326.027,156.799L325.554,156.326L325.082,155.853L324.609,155.38L324.136,154.907L323.663,154.907L322.717,154.434L322.244,154.434L321.771,153.961L321.298,153.961L320.353,153.488L319.879,153.488L318.941,153.015L317.988,153.015L317.042,153.015L315.624,152.542L314.205,152.542L312.786,152.542L312.786,154.434L312.313,154.434L311.84,154.434L312.786,154.434L313.259,154.907L313.732,154.907L314.205,155.38L315.15,155.38L315.15,155.853L315.624,156.326L316.096,156.326L316.569,156.799L317.042,157.271L317.515,157.744L317.988,158.217L317.988,158.69L318.468,159.163L318.468,159.636L318.941,160.109L318.941,162.001L328.399,162.001Z" style="fill:rgb(35,31,32);"/>
        <path d="M312.786,171.459L316.569,171.459L317.988,170.986L319.879,170.986L320.353,170.513L321.771,170.513L322.244,170.04L322.717,170.04L323.19,169.567L323.663,169.567L324.136,169.094L324.609,168.621L325.082,168.621L325.554,168.148L326.027,167.676L326.5,167.676L326.5,167.202L326.973,166.73L326.973,166.257L327.446,166.257L327.446,165.784L327.926,165.311L327.926,164.838L328.399,164.365L328.399,163.892L328.399,163.419L328.399,162.946L328.399,162.473L328.399,162.001L318.941,162.001L318.941,164.365L318.468,164.838L318.468,165.311L317.988,165.784L317.988,166.257L317.515,166.73L317.042,167.202L316.569,167.676L316.096,168.148L315.624,168.148L315.15,168.621L314.678,169.094L314.205,169.094L313.732,169.094L313.732,169.567L313.259,169.567L312.786,169.567L312.313,169.567L312.786,169.567L312.786,171.459Z" style="fill:rgb(35,31,32);"/>
        <path d="M296.707,162.001L296.707,162.946L297.18,163.419L297.18,164.838L297.653,165.311L297.653,165.784L298.126,166.257L298.606,166.73L298.606,167.202L299.079,167.676L299.552,167.676L300.018,168.148L300.018,168.621L300.491,168.621L300.963,169.094L301.436,169.567L301.909,169.567L302.382,170.04L303.328,170.04L303.801,170.513L305.22,170.513L305.692,170.986L306.638,170.986L307.584,171.459L312.786,171.459L312.786,169.567L313.259,169.567L312.786,169.567L312.313,169.567L311.84,169.567L311.367,169.094L310.894,169.094L310.421,168.621L309.949,168.621L309.476,168.148L309.01,167.676L308.537,167.676L308.537,167.202L308.057,166.73L307.584,166.257L307.584,165.784L307.111,165.311L306.638,164.838L306.638,164.365L306.638,163.892L306.638,163.419L306.165,162.946L306.165,162.473L306.165,162.001L296.707,162.001Z" style="fill:rgb(35,31,32);"/>
        <path d="M312.786,152.542L311.367,152.542L309.949,152.542L308.537,153.015L307.584,153.015L306.638,153.015L305.692,153.488L304.747,153.488L304.274,153.961L303.801,153.961L302.855,154.434L302.382,154.434L301.909,154.907L301.436,154.907L300.963,155.38L300.491,155.38L300.018,155.853L300.018,156.326L299.552,156.799L299.079,156.799L298.606,157.271L298.606,157.744L298.126,158.217L297.653,158.69L297.653,159.163L297.18,159.636L297.18,161.055L296.707,161.528L296.707,162.001L306.165,162.001L306.165,161.528L306.638,161.055L306.638,160.582L306.638,160.109L306.638,159.636L307.111,159.163L307.584,158.69L307.584,158.217L308.057,157.744L308.537,157.271L308.537,156.799L309.01,156.799L309.476,156.326L309.949,156.326L309.949,155.853L310.421,155.853L310.894,155.38L311.367,155.38L311.84,154.907L312.313,154.907L312.786,154.434L313.259,154.434L312.786,154.434L312.786,152.542Z" style="fill:rgb(35,31,32);"/>
        <path d="M325.082,140.247L377.582,140.247C383.249,174.769 391.288,205.98 355.82,210.709C294.343,220.167 323.19,164.365 325.082,140.247Z" style="fill:white;"/>
        <path d="M379.939,140.247L377.582,139.774L375.682,139.774L373.791,139.774L371.899,139.774L370.007,139.774L368.123,139.774L366.697,139.774L364.805,139.774L363.387,139.774L361.968,139.774L360.076,139.774L358.658,139.774L357.239,139.774L355.82,139.774L353.929,139.774L352.51,139.774L351.091,139.774L349.672,139.774L348.261,139.774L346.835,139.774L344.943,139.774L343.525,139.774L342.106,139.774L340.687,139.774L338.803,139.774L337.377,139.774L335.485,139.774L334.067,139.774L332.175,139.774L330.283,139.774L328.872,139.774L326.973,139.774L325.082,139.774L325.082,141.193L377.582,141.193L374.736,140.247L379.939,140.247L379.939,139.774L377.582,139.774L379.939,140.247Z" style="fill:rgb(35,31,32);"/>
        <path d="M357.719,211.182L361.022,210.709L364.333,209.764L367.17,208.818L369.535,207.872L371.899,206.926L374.264,205.508L376.155,204.089L377.582,202.67L378.993,200.778L380.411,199.36L381.357,197.468L382.303,195.577L383.249,193.212L383.722,191.32L384.195,188.956L384.668,186.591L385.14,184.227L385.14,181.862L385.14,179.025L385.14,176.188L385.14,173.823L384.668,170.986L384.195,168.148L384.195,165.311L383.722,162.001L383.249,159.163L382.776,156.326L382.303,153.015L381.83,149.705L380.884,146.868L380.411,143.557L379.939,140.247L374.736,140.247L375.209,143.557L375.682,146.868L376.628,150.178L377.101,153.015L377.582,156.326L378.054,159.163L378.52,162.001L378.993,165.311L378.993,168.148L379.466,170.986L379.939,173.823L379.939,184.227L379.466,186.591L378.993,188.956L378.52,191.32L378.054,193.212L377.101,195.104L376.155,197.468L375.209,198.887L373.791,200.778L372.372,202.197L370.953,204.089L369.062,205.035L367.17,206.453L364.805,207.399L362.441,208.345L360.076,209.291L357.239,209.764L354.401,210.237L357.719,211.182Z" style="fill:rgb(35,31,32);"/>
        <path d="M325.082,139.774L322.244,140.247L322.244,142.612L321.771,145.449L321.298,147.813L320.825,150.651L319.879,153.488L319.407,156.326L318.468,159.636L317.988,162.473L317.042,165.784L316.569,169.094L315.624,172.404L315.15,175.715L314.678,178.552L314.205,181.862L314.205,190.848L314.678,193.685L315.15,196.522L316.096,198.887L317.042,201.251L318.468,203.616L320.353,205.508L322.244,207.399L325.082,208.818L327.926,210.237L331.229,211.182L335.485,211.655L340.214,212.128L351.564,212.128L357.719,211.182L354.401,210.237L349.672,211.182L344.943,211.182L341.633,211.182L338.33,211.182L335.013,210.237L332.175,209.291L329.811,208.345L327.446,206.926L325.554,205.035L323.663,203.143L322.244,201.251L321.298,198.887L320.353,196.522L319.879,193.685L319.407,190.848L319.407,188.01L319.407,185.173L319.407,181.862L319.879,178.552L320.353,175.715L320.825,172.404L321.771,169.094L322.244,165.784L323.19,162.946L323.663,159.636L324.609,156.326L325.082,153.488L326.027,150.651L326.5,147.813L326.973,145.449L327.446,142.612L327.446,140.247L325.082,141.193L325.082,139.774L322.244,139.774L322.244,140.247L325.082,139.774Z" style="fill:rgb(35,31,32);"/>
        <rect x="235.23" y="141.193" width="24.125" height="23.645" style="fill:rgb(35,31,32);"/>
        <path d="M262.185,141.193L259.355,140.247L235.23,140.247L235.23,141.666L259.355,141.666L256.983,141.193L262.185,141.193L262.185,140.247L259.355,140.247L262.185,141.193Z" style="fill:rgb(35,31,32);"/>
        <path d="M259.355,165.311L262.185,164.838L262.185,141.193L256.983,141.193L256.983,164.838L259.355,164.365L259.355,165.311L262.185,165.311L262.185,164.838L259.355,165.311Z" style="fill:rgb(35,31,32);"/>
        <path d="M232.865,164.838L235.23,165.311L259.355,165.311L259.355,164.365L235.23,164.365L238.067,164.838L232.865,164.838L232.865,165.311L235.23,165.311L232.865,164.838Z" style="fill:rgb(35,31,32);"/>
        <path d="M235.23,140.247L232.865,141.193L232.865,164.838L238.067,164.838L238.067,141.193L235.23,141.666L235.23,140.247L232.865,140.247L232.865,141.193L235.23,140.247Z" style="fill:rgb(35,31,32);"/>
        <path d="M601.256,194.631C595.108,191.793 587.069,183.281 587.069,176.188L594.635,176.188L594.635,182.808L595.108,183.281L595.108,184.7L595.581,185.173L595.581,186.119L596.054,186.591L596.054,187.537L596.527,188.01L596.527,188.483L597,188.483L597,189.429L597.473,189.429L597.473,190.375L597.946,190.375L597.946,190.848L598.419,190.848L598.419,191.793L598.892,191.793L598.892,192.266L599.365,192.266L599.365,192.739L599.837,193.212L600.783,194.158L601.256,194.631Z" style="fill:rgb(35,31,32);"/>
        <path d="M590.852,176.188L587.069,176.188C585.65,166.73 597,157.744 605.039,155.38C598.892,159.636 594.635,166.257 595.108,173.823C595.581,174.769 595.108,175.242 594.635,176.188L590.852,176.188Z" style="fill:rgb(35,31,32);"/>
        <path d="M345.319,54.008C356.961,54.008 364.337,53.726 375.94,54.534C388.106,55.38 402.246,56.621 412.066,56.621C421.885,56.621 439.887,58.409 447.861,58.189C506.68,56.569 525.654,58.787 577.992,60.544C590.243,59.846 602.525,60.288 614.227,58.453C622.197,55.124 627.289,56.271 630.173,45.35C630.021,36.389 620.166,32.267 617.086,30.727C608.263,28.849 599.907,27.666 591.989,27.328C582.084,26.806 559.856,29.638 557.43,29.951C547.175,31.53 535.056,34.836 525.042,37.264C503.792,42.827 484.71,53.507 474.009,56.633L474.005,58.722C470.343,58.722 461.441,62.654 459.349,64.746C458.302,64.746 452.527,67.224 445.768,69.967C439.373,72.564 421.272,77.439 413.067,79.118C404.717,80.825 390.969,81.954 381.941,82.257C369.981,82.659 358.188,82.411 347.652,80.697C345.595,80.363 328.365,77.302 329.412,75.21C321.698,72.643 321.037,72.812 316.544,65.526C316.544,62.091 317.28,60.684 320.473,58.716C320.996,58.193 325.961,57.146 325.961,56.1C332.219,55.318 339.022,54.008 345.319,54.008Z" style="fill:white;"/>
        <path d="M345.319,54.008C356.961,54.008 364.337,53.726 375.94,54.534C388.106,55.38 402.246,56.621 412.066,56.621C421.885,56.621 439.887,58.409 447.861,58.189C506.68,56.569 525.654,58.787 577.992,60.544C590.243,59.846 602.525,60.288 614.227,58.453C622.197,55.124 627.289,56.271 630.173,45.35C630.021,36.389 620.166,32.267 617.086,30.727C608.263,28.849 599.907,27.666 591.989,27.328C582.084,26.806 559.856,29.638 557.43,29.951C547.175,31.53 535.056,34.836 525.042,37.264C503.792,42.827 484.71,53.507 474.009,56.633L474.005,58.722C470.343,58.722 461.441,62.654 459.349,64.746C458.302,64.746 452.527,67.224 445.768,69.967C439.373,72.564 421.272,77.439 413.067,79.118C404.717,80.825 390.969,81.954 381.941,82.257C369.981,82.659 358.188,82.411 347.652,80.697C345.595,80.363 328.365,77.302 329.412,75.21C321.698,72.643 321.037,72.812 316.544,65.526C316.544,62.091 317.28,60.684 320.473,58.716C320.996,58.193 325.961,57.146 325.961,56.1C332.219,55.318 339.022,54.008 345.319,54.008Z" style="fill:none;"/>
        <path d="M465.629,71.685L472.249,47.094L479.816,71.685L479.816,192.275L465.629,192.275L465.629,71.685Z" style="fill:white;"/>
        <path d="M474.621,47.094L469.885,47.094L463.264,71.685L468.466,71.685L474.621,47.094L469.885,47.094L474.621,47.094Z" style="fill:rgb(35,31,32);"/>
        <path d="M482.181,71.685L474.621,47.094L469.885,47.094L476.978,71.685L482.181,71.685Z" style="fill:rgb(35,31,32);"/>
        <path d="M479.816,192.748L482.181,192.275L482.181,71.685L476.978,71.685L476.978,192.275L479.816,191.802L479.816,192.748L482.181,192.748L482.181,192.275L479.816,192.748Z" style="fill:rgb(35,31,32);"/>
        <path d="M463.264,192.275L465.629,192.748L479.816,192.748L479.816,191.802L465.629,191.802L468.466,192.275L463.264,192.275L463.264,192.748L465.629,192.748L463.264,192.275Z" style="fill:rgb(35,31,32);"/>
        <rect x="463.264" y="71.685" width="5.202" height="120.59" style="fill:rgb(35,31,32);"/>
        <path d="M629.981,45.022L629.981,42.658L629.035,40.293L628.089,37.929L626.198,36.037L624.306,34.146L621.469,32.727L618.631,31.308L615.321,29.889L611.538,28.944L607.754,27.998L603.025,27.052L598.296,26.579L593.095,26.106L587.893,26.106L582.691,26.106L576.543,26.106L570.868,26.579L564.728,27.525L558.573,27.998L551.952,28.944L545.804,30.362L538.71,31.781L532.09,33.2L525.477,35.091L518.376,37.456L511.755,39.347L504.661,41.712L497.568,44.55L490.474,47.387L483.38,50.697L476.294,54.008L469.666,57.318L473.922,58.264L481.016,54.953L487.637,51.643L494.73,48.333L501.351,45.495L508.445,43.131L515.073,40.766L522.159,38.402L528.78,36.51L535.408,34.618L542.021,33.2L548.169,31.781L554.797,30.835L560.464,29.416L566.612,28.944L572.287,28.471L577.489,27.998L582.691,27.525L587.893,27.525L592.622,27.998L596.878,27.998L601.134,28.471L604.917,29.416L608.228,29.889L611.538,30.835L614.375,32.254L617.213,33.673L619.577,35.091L621.469,36.51L622.888,38.402L623.841,40.293L624.779,42.658L624.779,45.022L629.981,45.022Z" style="fill:rgb(35,31,32);"/>
        <path d="M471.558,58.736L495.203,58.736L502.77,59.209L510.336,59.209L517.43,59.682L525.004,60.155L532.09,60.155L538.71,60.628L545.331,61.101L551.952,61.101L558.573,61.574L570.395,61.574L576.07,62.047L586.947,62.047L592.149,61.574L596.878,61.574L601.607,61.101L605.863,60.628L610.119,60.155L613.429,59.209L617.213,58.736L620.05,57.318L622.888,56.372L624.779,54.953L626.671,53.062L628.089,51.643L629.035,49.279L629.981,47.387L629.981,45.022L624.779,45.022L624.779,47.387L624.306,49.279L623.368,51.17L621.942,52.589L620.05,54.008L618.158,55.426L615.794,56.372L613.429,57.318L610.592,58.264L607.282,58.736L603.979,59.209L600.188,59.682L595.932,60.155L591.676,60.155L586.947,60.155L581.745,60.155L576.543,60.155L570.868,60.155L565.193,60.155L559.045,59.682L552.898,59.682L546.277,59.209L539.656,58.736L532.563,58.736L525.477,58.264L518.376,57.791L510.809,57.791L503.242,57.318L495.684,57.318L487.637,57.318L479.597,56.845L471.558,56.845L471.558,58.736Z" style="fill:rgb(35,31,32);"/>
        <path d="M319.284,64.411L319.284,62.52L319.757,61.101L320.703,60.155L322.122,58.736L323.54,57.791L325.432,57.318L327.804,56.372L330.161,55.899L332.999,55.426L335.836,54.953L339.619,54.953L343.402,54.48L361.846,54.48L367.528,54.953L372.723,54.953L378.87,55.426L385.018,55.426L391.166,55.899L397.787,56.372L404.407,56.372L411.501,56.845L418.594,57.318L425.688,57.318L433.255,57.791L440.821,58.264L455.959,58.264L463.519,58.736L471.558,58.736L471.558,56.845L463.991,56.845L455.959,56.845L448.388,56.845L441.294,56.372L433.727,56.372L426.161,55.899L419.067,55.426L411.974,55.426L405.353,54.953L398.259,54.48L392.112,54.48L385.491,54.008L379.343,53.535L373.669,53.535L368.001,53.062L362.319,53.062L357.117,53.062L351.915,52.589L347.186,53.062L342.93,53.062L338.681,53.062L334.417,53.535L330.634,54.008L327.324,54.48L324.486,54.953L321.649,55.899L319.284,56.845L317.393,58.264L315.974,59.682L314.555,61.101L314.082,62.52L314.082,64.411L319.284,64.411Z" style="fill:rgb(35,31,32);"/>
        <path d="M469.666,57.318L462.573,60.628L455.959,63.939L448.86,66.776L442.24,69.613L435.619,71.978L428.998,73.869L421.905,75.761L415.284,77.18L408.663,78.598L402.516,79.544L395.895,80.49L389.747,81.436L384.072,81.909L377.932,81.909L372.25,82.382L367.048,82.382L361.846,81.909L356.644,81.436L351.915,80.963L347.666,80.49L343.402,79.544L339.619,78.598L335.836,77.653L332.526,76.707L329.215,75.288L326.851,73.869L324.486,72.451L322.595,71.032L321.176,69.613L319.757,67.722L319.284,66.303L319.284,64.411L314.082,64.411L314.082,66.303L315.028,68.194L315.974,70.086L317.866,71.505L319.757,73.397L322.122,74.815L324.959,76.234L328.277,77.653L332.053,79.071L336.309,80.017L340.565,80.963L345.294,81.909L350.023,82.382L355.225,83.327L360.9,83.8L378.398,83.8L385.018,83.327L391.166,82.854L397.787,82.382L404.88,81.436L411.501,80.017L418.121,78.598L425.215,77.18L432.309,75.288L439.402,72.924L446.03,70.559L453.115,67.722L460.208,64.884L466.829,61.574L473.922,58.264L469.666,57.318Z" style="fill:rgb(35,31,32);"/>
        <path d="M250.828,417.372L250.828,442.293C250.828,445.824 251.265,448.056 252.109,449.003C253.25,450.217 254.751,450.825 256.642,450.825L260.456,450.825L260.456,452.309L235.4,452.309L235.4,450.825L237.276,450.825C238.495,450.825 239.62,450.543 240.621,449.991C241.621,449.441 242.325,448.692 242.7,447.76C243.09,446.813 243.278,444.991 243.278,442.293L243.278,417.372L235.118,417.372L235.118,414.391L243.278,414.391L243.278,411.919C243.278,408.133 243.95,404.926 245.294,402.313C246.639,399.685 248.686,397.566 251.453,395.955C254.219,394.345 257.314,393.539 260.769,393.539C263.973,393.539 266.928,394.472 269.615,396.351C271.382,397.594 272.257,398.993 272.257,400.532C272.257,401.366 271.867,402.143 271.069,402.864C270.273,403.598 269.428,403.965 268.506,403.965C267.803,403.965 267.068,403.739 266.286,403.287C265.505,402.836 264.551,401.846 263.426,400.349C262.301,398.837 261.253,397.834 260.316,397.297C259.362,396.774 258.315,396.52 257.158,396.52C255.751,396.52 254.563,396.859 253.578,397.538C252.609,398.201 251.907,399.261 251.468,400.673C251.047,402.1 250.828,405.76 250.828,411.664L250.828,414.391L261.644,414.391L261.644,417.372L250.828,417.372Z" style="fill:rgb(35,31,32);"/>
        <path d="M280.088,393.455L280.088,443.748C280.088,446.121 280.292,447.689 280.667,448.466C281.042,449.229 281.636,449.822 282.433,450.217C283.231,450.614 284.7,450.825 286.872,450.825L286.872,452.309L266.318,452.309L266.318,450.825C268.24,450.825 269.554,450.642 270.241,450.274C270.945,449.921 271.508,449.328 271.898,448.494C272.289,447.675 272.492,446.092 272.492,443.748L272.492,409.305C272.492,405.025 272.383,402.397 272.179,401.422C271.96,400.447 271.617,399.769 271.148,399.417C270.663,399.049 270.069,398.88 269.335,398.88C268.538,398.88 267.537,399.091 266.318,399.543L265.536,398.088L278.041,393.455L280.088,393.455Z" style="fill:rgb(35,31,32);"/>
        <path d="M289.342,414.391L308.896,414.391L308.896,415.931L307.943,415.931C306.567,415.931 305.536,416.199 304.847,416.736C304.16,417.273 303.816,417.937 303.816,418.742C303.816,419.816 304.316,421.314 305.332,423.206L315.539,442.334L324.933,421.399C325.449,420.254 325.7,419.138 325.7,418.036C325.7,417.541 325.59,417.174 325.386,416.92C325.136,416.623 324.761,416.383 324.246,416.199C323.715,416.016 322.807,415.931 321.495,415.931L321.495,414.391L335.14,414.391L335.14,415.931C334.015,416.044 333.139,416.256 332.53,416.595C331.92,416.92 331.248,417.541 330.514,418.46C330.232,418.841 329.716,419.901 328.95,421.638L311.882,459.471C310.225,463.144 308.068,465.913 305.395,467.792C302.722,469.671 300.158,470.603 297.673,470.603C295.876,470.603 294.391,470.137 293.234,469.19C292.078,468.258 291.499,467.185 291.499,465.969C291.499,464.811 291.921,463.879 292.749,463.172C293.594,462.466 294.75,462.113 296.219,462.113C297.22,462.113 298.596,462.424 300.331,463.031C301.55,463.441 302.316,463.653 302.628,463.653C303.535,463.653 304.535,463.215 305.63,462.367C306.708,461.505 307.802,459.852 308.896,457.394L311.882,450.825L296.813,422.218C296.344,421.37 295.626,420.296 294.609,419.039C293.844,418.064 293.219,417.415 292.734,417.09C292.03,416.651 290.905,416.256 289.342,415.931L289.342,414.391Z" style="fill:rgb(35,31,32);"/>
        <path d="M349.285,393.455C350.568,393.455 351.662,393.865 352.568,394.669C353.459,395.489 353.912,396.478 353.912,397.636C353.912,398.794 353.459,399.784 352.568,400.617C351.662,401.437 350.568,401.861 349.285,401.861C348.004,401.861 346.91,401.437 345.988,400.617C345.081,399.784 344.612,398.794 344.612,397.636C344.612,396.478 345.065,395.489 345.972,394.669C346.863,393.865 347.973,393.455 349.285,393.455ZM353.084,413.275L353.084,443.748C353.084,446.121 353.272,447.689 353.662,448.48C354.037,449.271 354.6,449.85 355.351,450.246C356.101,450.627 357.476,450.825 359.461,450.825L359.461,452.309L339.078,452.309L339.078,450.825C341.126,450.825 342.502,450.642 343.19,450.274C343.893,449.921 344.456,449.328 344.862,448.494C345.284,447.675 345.487,446.092 345.487,443.748L345.487,429.126C345.487,425.015 345.346,422.359 345.081,421.144C344.862,420.254 344.519,419.646 344.065,419.307C343.611,418.954 342.986,418.784 342.19,418.784C341.33,418.784 340.298,418.997 339.078,419.407L338.438,417.909L351.068,413.275L353.084,413.275Z" style="fill:rgb(35,31,32);"/>
        <path d="M376.906,421.314C381.813,415.96 386.502,413.275 390.958,413.275C393.255,413.275 395.224,413.798 396.866,414.829C398.523,415.86 399.836,417.57 400.805,419.943C401.477,421.596 401.805,424.139 401.805,427.557L401.805,443.748C401.805,446.135 402.024,447.773 402.461,448.621C402.79,449.313 403.337,449.85 404.087,450.246C404.822,450.627 406.213,450.825 408.229,450.825L408.229,452.309L387.471,452.309L387.471,450.825L388.347,450.825C390.301,450.825 391.676,450.543 392.443,450.006C393.224,449.469 393.771,448.678 394.068,447.632C394.193,447.223 394.255,445.923 394.255,443.748L394.255,428.222C394.255,424.775 393.755,422.274 392.77,420.706C391.77,419.152 390.098,418.375 387.753,418.375C384.126,418.375 380.501,420.169 376.906,423.758L376.906,443.748C376.906,446.305 377.062,447.886 377.406,448.494C377.827,449.3 378.422,449.893 379.172,450.26C379.922,450.627 381.438,450.825 383.72,450.825L383.72,452.309L362.978,452.309L362.978,450.825L363.901,450.825C366.026,450.825 367.48,450.33 368.23,449.356C368.965,448.367 369.34,446.502 369.34,443.748L369.34,429.662C369.34,425.114 369.23,422.344 368.996,421.356C368.778,420.353 368.418,419.675 367.949,419.322C367.48,418.968 366.839,418.784 366.042,418.784C365.198,418.784 364.166,418.997 362.978,419.407L362.291,417.909L374.936,413.275L376.906,413.275L376.906,421.314Z" style="fill:rgb(35,31,32);"/>
        <path d="M422.781,438.478C420.217,437.347 418.248,435.78 416.873,433.745C415.497,431.711 414.825,429.479 414.825,427.021C414.825,423.263 416.388,420.042 419.515,417.33C422.64,414.631 426.641,413.275 431.534,413.275C435.536,413.275 438.99,414.165 441.929,415.931L450.807,415.931C452.12,415.931 452.886,415.96 453.104,416.03C453.308,416.101 453.464,416.214 453.558,416.383C453.746,416.638 453.839,417.075 453.839,417.711C453.839,418.432 453.762,418.926 453.605,419.194C453.512,419.336 453.354,419.449 453.12,419.533C452.902,419.618 452.12,419.646 450.807,419.646L445.367,419.646C447.071,421.638 447.931,424.181 447.931,427.275C447.931,430.807 446.43,433.816 443.445,436.331C440.444,438.845 436.427,440.103 431.394,440.103C429.315,440.103 427.205,439.82 425.032,439.269C423.687,440.314 422.781,441.233 422.312,442.024C421.827,442.815 421.593,443.479 421.593,444.03C421.593,444.496 421.843,444.949 422.344,445.401C422.859,445.838 423.844,446.149 425.298,446.347C426.157,446.46 428.299,446.559 431.722,446.644C438.006,446.77 442.085,446.969 443.945,447.223C446.774,447.576 449.04,448.522 450.744,450.076C452.433,451.616 453.277,453.523 453.277,455.784C453.277,458.906 451.667,461.831 448.431,464.557C443.664,468.583 437.458,470.603 429.799,470.603C423.906,470.603 418.921,469.403 414.857,467.001C412.574,465.617 411.433,464.19 411.433,462.692C411.433,462.028 411.589,461.378 411.933,460.714C412.449,459.683 413.528,458.27 415.138,456.448C415.357,456.194 416.904,454.71 419.811,451.983C418.217,451.122 417.107,450.359 416.451,449.681C415.794,449.003 415.466,448.24 415.466,447.378C415.466,446.418 415.888,445.288 416.763,443.987C417.638,442.688 419.64,440.851 422.781,438.478ZM430.753,415.267C428.502,415.267 426.595,416.086 425.079,417.711C423.547,419.336 422.781,421.836 422.781,425.198C422.781,429.564 423.829,432.94 425.907,435.342C427.486,437.164 429.503,438.068 431.94,438.068C434.269,438.068 436.177,437.291 437.662,435.709C439.162,434.141 439.912,431.669 439.912,428.306C439.912,423.913 438.865,420.48 436.755,417.993C435.192,416.171 433.192,415.267 430.753,415.267ZM422.327,452.309C420.89,453.721 419.811,455.021 419.077,456.236C418.342,457.45 417.982,458.567 417.982,459.598C417.982,460.912 418.858,462.07 420.64,463.073C423.687,464.783 428.095,465.63 433.863,465.63C439.366,465.63 443.414,464.755 446.024,463.002C448.634,461.251 449.948,459.386 449.948,457.394C449.948,455.967 449.165,454.95 447.603,454.343C446.024,453.735 442.866,453.368 438.177,453.255C431.3,453.099 426.016,452.775 422.327,452.309Z" style="fill:rgb(35,31,32);"/>
        <path d="M511.532,448.042C509.484,449.978 507.484,451.362 505.53,452.209C503.576,453.043 501.466,453.467 499.215,453.467C494.636,453.467 490.634,451.729 487.211,448.268C483.804,444.807 482.084,440.357 482.084,434.932C482.084,429.493 483.975,424.52 487.774,420C491.557,415.493 496.417,413.232 502.372,413.232C506.061,413.232 509.125,414.307 511.532,416.425L511.532,409.433C511.532,405.095 511.423,402.439 511.188,401.437C510.954,400.447 510.594,399.769 510.11,399.417C509.625,399.049 509.015,398.88 508.281,398.88C507.484,398.88 506.436,399.091 505.124,399.543L504.53,398.088L517.034,393.455L519.082,393.455L519.082,437.291C519.082,441.728 519.207,444.439 519.426,445.414C519.66,446.403 520.02,447.082 520.536,447.463C521.036,447.858 521.63,448.042 522.286,448.042C523.115,448.042 524.225,447.816 525.584,447.336L526.1,448.791L513.643,453.467L511.532,453.467L511.532,448.042ZM511.532,445.146L511.532,425.608C511.344,423.743 510.798,422.02 509.891,420.48C508.969,418.94 507.75,417.767 506.249,416.99C504.733,416.199 503.264,415.804 501.826,415.804C499.137,415.804 496.746,416.892 494.636,419.067C491.853,421.949 490.462,426.131 490.462,431.654C490.462,437.234 491.807,441.502 494.494,444.468C497.183,447.434 500.168,448.918 503.467,448.918C506.249,448.918 508.938,447.66 511.532,445.146Z" style="fill:rgb(35,31,32);"/>
        <path d="M549.312,413.275C555.657,413.275 560.753,415.465 564.614,419.816C567.88,423.545 569.506,427.826 569.506,432.644C569.506,436.048 568.599,439.481 566.803,442.956C565.005,446.431 562.519,449.059 559.362,450.825C556.205,452.591 552.688,453.467 548.811,453.467C542.481,453.467 537.463,451.192 533.743,446.644C530.602,442.801 529.023,438.492 529.023,433.731C529.023,430.242 529.976,426.795 531.883,423.362C533.79,419.929 536.307,417.387 539.417,415.747C542.527,414.094 545.825,413.275 549.312,413.275ZM547.889,415.973C546.279,415.973 544.654,416.397 543.012,417.273C541.386,418.149 540.057,419.661 539.057,421.851C538.041,424.026 537.541,426.823 537.541,430.242C537.541,435.766 538.761,440.527 541.184,444.524C543.606,448.522 546.81,450.529 550.78,450.529C553.734,450.529 556.173,449.426 558.111,447.223C560.034,445.005 560.987,441.218 560.987,435.837C560.987,429.097 559.393,423.8 556.173,419.943C554.016,417.287 551.249,415.973 547.889,415.973Z" style="fill:rgb(35,31,32);"/>
        <path d="M586.903,438.478C584.339,437.347 582.37,435.78 580.995,433.745C579.619,431.711 578.947,429.479 578.947,427.021C578.947,423.263 580.51,420.042 583.636,417.33C586.762,414.631 590.763,413.275 595.656,413.275C599.657,413.275 603.111,414.165 606.05,415.931L614.928,415.931C616.242,415.931 617.007,415.96 617.226,416.03C617.43,416.101 617.586,416.214 617.68,416.383C617.867,416.638 617.961,417.075 617.961,417.711C617.961,418.432 617.883,418.926 617.727,419.194C617.633,419.336 617.476,419.449 617.242,419.533C617.023,419.618 616.242,419.646 614.928,419.646L609.489,419.646C611.193,421.638 612.053,424.181 612.053,427.275C612.053,430.807 610.552,433.816 607.567,436.331C604.565,438.845 600.549,440.103 595.516,440.103C593.437,440.103 591.327,439.82 589.154,439.269C587.809,440.314 586.903,441.233 586.434,442.024C585.949,442.815 585.715,443.479 585.715,444.03C585.715,444.496 585.965,444.949 586.465,445.401C586.981,445.838 587.965,446.149 589.419,446.347C590.279,446.46 592.421,446.559 595.843,446.644C602.127,446.77 606.207,446.969 608.067,447.223C610.896,447.576 613.162,448.522 614.866,450.076C616.555,451.616 617.398,453.523 617.398,455.784C617.398,458.906 615.788,461.831 612.553,464.557C607.785,468.583 601.58,470.603 593.921,470.603C588.028,470.603 583.042,469.403 578.978,467.001C576.696,465.617 575.555,464.19 575.555,462.692C575.555,462.028 575.711,461.378 576.055,460.714C576.571,459.683 577.65,458.27 579.26,456.448C579.479,456.194 581.026,454.71 583.933,451.983C582.339,451.122 581.229,450.359 580.572,449.681C579.916,449.003 579.587,448.24 579.587,447.378C579.587,446.418 580.01,445.288 580.885,443.987C581.76,442.688 583.761,440.851 586.903,438.478ZM594.875,415.267C592.623,415.267 590.717,416.086 589.2,417.711C587.669,419.336 586.903,421.836 586.903,425.198C586.903,429.564 587.95,432.94 590.029,435.342C591.608,437.164 593.624,438.068 596.062,438.068C598.391,438.068 600.299,437.291 601.784,435.709C603.284,434.141 604.034,431.669 604.034,428.306C604.034,423.913 602.986,420.48 600.876,417.993C599.314,416.171 597.313,415.267 594.875,415.267ZM586.449,452.309C585.011,453.721 583.933,455.021 583.199,456.236C582.464,457.45 582.104,458.567 582.104,459.598C582.104,460.912 582.98,462.07 584.761,463.073C587.809,464.783 592.217,465.63 597.985,465.63C603.487,465.63 607.535,464.755 610.146,463.002C612.756,461.251 614.069,459.386 614.069,457.394C614.069,455.967 613.287,454.95 611.724,454.343C610.146,453.735 606.988,453.368 602.299,453.255C595.422,453.099 590.138,452.775 586.449,452.309Z" style="fill:rgb(35,31,32);"/>
        <path d="M261.55,507.15L261.55,520.062L260.034,520.062C258.877,516.008 257.392,513.254 255.579,511.784C253.751,510.329 251.437,509.594 248.639,509.594C246.498,509.594 244.779,510.103 243.465,511.134C242.152,512.151 241.496,513.282 241.496,514.525C241.496,516.065 241.981,517.392 242.95,518.494C243.904,519.625 245.826,520.826 248.733,522.097L255.407,525.035C261.612,527.762 264.708,531.364 264.708,535.842C264.708,539.289 263.27,542.059 260.378,544.177C257.502,546.283 254.267,547.342 250.703,547.342C248.124,547.342 245.2,546.933 241.902,546.099C240.902,545.83 240.074,545.689 239.432,545.689C238.73,545.689 238.182,546.042 237.776,546.763L236.276,546.763L236.276,533.229L237.776,533.229C238.636,537.086 240.277,539.996 242.684,541.959C245.091,543.923 247.795,544.898 250.78,544.898C252.891,544.898 254.611,544.347 255.938,543.231C257.267,542.101 257.924,540.759 257.924,539.191C257.924,537.284 257.189,535.687 255.704,534.387C254.235,533.088 251.281,531.449 246.842,529.457C242.419,527.479 239.526,525.685 238.151,524.089C236.776,522.507 236.088,520.529 236.088,518.127C236.088,515.005 237.276,512.392 239.636,510.3C241.996,508.21 245.06,507.15 248.811,507.15C250.468,507.15 252.469,507.475 254.813,508.111C256.377,508.521 257.408,508.732 257.924,508.732C258.424,508.732 258.8,508.634 259.081,508.436C259.346,508.238 259.675,507.815 260.034,507.15L261.55,507.15Z" style="fill:rgb(35,31,32);"/>
        <path d="M300.774,507.15C307.119,507.15 312.216,509.34 316.076,513.691C319.342,517.421 320.969,521.701 320.969,526.519C320.969,529.923 320.061,533.356 318.265,536.831C316.467,540.306 313.981,542.934 310.824,544.7C307.667,546.466 304.15,547.342 300.274,547.342C293.943,547.342 288.925,545.067 285.205,540.519C282.064,536.676 280.485,532.367 280.485,527.606C280.485,524.117 281.439,520.67 283.345,517.237C285.252,513.804 287.769,511.262 290.879,509.622C293.99,507.969 297.287,507.15 300.774,507.15ZM299.351,509.848C297.741,509.848 296.116,510.272 294.474,511.148C292.848,512.024 291.52,513.536 290.519,515.726C289.503,517.901 289.003,520.698 289.003,524.117C289.003,529.641 290.223,534.402 292.646,538.399C295.068,542.398 298.272,544.404 302.243,544.404C305.197,544.404 307.635,543.301 309.573,541.098C311.496,538.88 312.449,535.093 312.449,529.712C312.449,522.972 310.855,517.675 307.635,513.818C305.478,511.162 302.711,509.848 299.351,509.848Z" style="fill:rgb(35,31,32);"/>
        <path d="M352.861,511.247L352.861,536.168C352.861,539.699 353.298,541.931 354.142,542.878C355.284,544.092 356.784,544.7 358.675,544.7L362.489,544.7L362.489,546.184L337.433,546.184L337.433,544.7L339.309,544.7C340.528,544.7 341.653,544.418 342.654,543.866C343.654,543.316 344.358,542.567 344.733,541.635C345.123,540.688 345.311,538.866 345.311,536.168L345.311,511.247L337.151,511.247L337.151,508.266L345.311,508.266L345.311,505.794C345.311,502.008 345.983,498.801 347.327,496.188C348.672,493.56 350.719,491.441 353.486,489.83C356.252,488.22 359.348,487.415 362.802,487.415C366.006,487.415 368.961,488.347 371.648,490.226C373.415,491.469 374.29,492.868 374.29,494.407C374.29,495.241 373.9,496.018 373.102,496.739C372.306,497.473 371.461,497.841 370.539,497.841C369.836,497.841 369.101,497.615 368.319,497.163C367.538,496.711 366.584,495.721 365.459,494.224C364.334,492.712 363.287,491.709 362.349,491.172C361.395,490.649 360.348,490.395 359.191,490.395C357.784,490.395 356.596,490.734 355.611,491.413C354.642,492.076 353.94,493.136 353.501,494.548C353.08,495.975 352.861,499.635 352.861,505.539L352.861,508.266L363.677,508.266L363.677,511.247L352.861,511.247Z" style="fill:rgb(35,31,32);"/>
        <path d="M389.208,495.82L389.208,508.266L399.009,508.266L399.009,511.162L389.208,511.162L389.208,535.758C389.208,538.216 389.599,539.869 390.381,540.716C391.147,541.578 392.147,542.002 393.366,542.002C394.382,542.002 395.351,541.72 396.305,541.155C397.242,540.589 397.977,539.756 398.509,538.653L400.29,538.653C399.212,541.352 397.711,543.386 395.757,544.757C393.804,546.127 391.787,546.805 389.708,546.805C388.302,546.805 386.927,546.452 385.582,545.745C384.238,545.039 383.253,544.036 382.613,542.723C381.971,541.423 381.643,539.402 381.643,536.662L381.643,511.162L375.016,511.162L375.016,509.806C376.689,509.199 378.408,508.167 380.158,506.727C381.909,505.271 383.488,503.547 384.848,501.57C385.551,500.525 386.536,498.603 387.786,495.82L389.208,495.82Z" style="fill:rgb(35,31,32);"/>
        <path d="M410.066,508.266L427.651,508.266L427.651,509.806C426.041,509.919 424.978,510.174 424.462,510.583C423.962,511.007 423.712,511.601 423.712,512.363C423.712,513.225 423.978,514.256 424.493,515.471L433.465,537.284L442.484,519.525L440.109,513.945C439.374,512.292 438.42,511.148 437.216,510.513C436.545,510.117 435.294,509.891 433.465,509.806L433.465,508.266L453.441,508.266L453.441,509.806C451.237,509.891 449.674,510.244 448.768,510.88C448.158,511.318 447.846,512.024 447.846,512.985C447.846,513.536 447.971,514.101 448.221,514.68L457.74,536.464L466.572,515.471C467.181,513.988 467.493,512.801 467.493,511.911C467.493,511.388 467.197,510.922 466.603,510.513C466.008,510.089 464.836,509.863 463.101,509.806L463.101,508.266L476.325,508.266L476.325,509.806C473.667,510.159 471.713,511.784 470.463,514.68L456.458,547.342L454.582,547.342L444.094,523.128L431.871,547.342L430.167,547.342L416.709,515.471C415.818,513.465 414.958,512.095 414.099,511.403C413.239,510.696 411.895,510.159 410.066,509.806L410.066,508.266Z" style="fill:rgb(35,31,32);"/>
        <path d="M513.22,540.716C508.921,543.725 506.217,545.463 505.107,545.929C503.465,546.622 501.715,546.975 499.855,546.975C496.947,546.975 494.556,546.071 492.681,544.276C490.805,542.482 489.867,540.123 489.867,537.199C489.867,535.348 490.32,533.752 491.242,532.395C492.492,530.531 494.665,528.765 497.76,527.098C500.855,525.445 506.013,523.439 513.22,521.065L513.22,519.568C513.22,515.796 512.562,513.197 511.234,511.784C509.906,510.385 507.967,509.679 505.435,509.679C503.513,509.679 501.98,510.145 500.855,511.091C499.699,512.024 499.12,513.098 499.12,514.312L499.214,516.714C499.214,517.985 498.855,518.96 498.135,519.653C497.416,520.345 496.479,520.684 495.322,520.684C494.181,520.684 493.259,520.331 492.54,519.61C491.821,518.89 491.461,517.915 491.461,516.672C491.461,514.299 492.806,512.123 495.494,510.131C498.182,508.153 501.949,507.15 506.811,507.15C510.531,507.15 513.579,507.715 515.97,508.845C517.768,509.707 519.096,511.049 519.956,512.872C520.503,514.058 520.769,516.474 520.769,520.147L520.769,533.017C520.769,536.633 520.847,538.852 521.003,539.671C521.159,540.476 521.41,541.027 521.754,541.296C522.113,541.578 522.519,541.72 522.973,541.72C523.458,541.72 523.895,541.62 524.254,541.423C524.895,541.07 526.13,540.052 527.959,538.399L527.959,540.716C524.552,544.856 521.285,546.933 518.159,546.933C516.674,546.933 515.486,546.466 514.595,545.519C513.704,544.587 513.251,542.977 513.22,540.716ZM513.22,538.032L513.22,523.58C508.608,525.247 505.638,526.42 504.294,527.098C501.871,528.313 500.152,529.584 499.12,530.912C498.073,532.24 497.557,533.681 497.557,535.264C497.557,537.241 498.214,538.894 499.526,540.208C500.84,541.507 502.355,542.172 504.059,542.172C506.388,542.172 509.437,540.787 513.22,538.032Z" style="fill:rgb(35,31,32);"/>
        <path d="M552.677,507.15L552.677,515.683C556.179,509.99 559.789,507.15 563.478,507.15C565.15,507.15 566.542,507.617 567.652,508.534C568.746,509.467 569.293,510.541 569.293,511.742C569.293,512.829 568.902,513.734 568.105,514.482C567.308,515.231 566.37,515.598 565.26,515.598C564.198,515.598 562.994,515.118 561.665,514.171C560.336,513.225 559.351,512.744 558.711,512.744C558.164,512.744 557.57,513.013 556.929,513.564C555.554,514.694 554.131,516.559 552.677,519.158L552.677,537.326C552.677,539.417 552.958,541.013 553.537,542.087C553.943,542.836 554.647,543.457 555.647,543.951C556.664,544.446 558.101,544.7 559.993,544.7L559.993,546.184L538.516,546.184L538.516,544.7C540.658,544.7 542.252,544.389 543.283,543.782C544.049,543.344 544.58,542.638 544.893,541.677C545.034,541.197 545.112,539.869 545.112,537.651L545.112,522.959C545.112,518.551 545.018,515.923 544.815,515.076C544.628,514.242 544.253,513.621 543.721,513.239C543.189,512.857 542.518,512.659 541.72,512.659C540.783,512.659 539.72,512.872 538.516,513.282L538.063,511.784L550.755,507.15L552.677,507.15Z" style="fill:rgb(35,31,32);"/>
        <path d="M588.009,522.549C587.978,528.185 589.478,532.593 592.542,535.8C595.59,538.993 599.185,540.589 603.296,540.589C606.047,540.589 608.438,539.911 610.471,538.54C612.502,537.185 614.191,534.839 615.566,531.534L616.989,532.353C616.347,536.139 614.487,539.586 611.408,542.68C608.313,545.788 604.453,547.342 599.826,547.342C594.777,547.342 590.463,545.576 586.884,542.03C583.289,538.484 581.506,533.709 581.506,527.719C581.506,521.235 583.335,516.178 587.024,512.561C590.698,508.93 595.309,507.108 600.874,507.108C605.578,507.108 609.439,508.506 612.456,511.318C615.472,514.115 616.989,517.859 616.989,522.549L588.009,522.549ZM588.009,520.147L607.423,520.147C607.267,517.718 606.954,516.008 606.453,515.019C605.703,513.479 604.563,512.264 603.046,511.375C601.53,510.498 599.951,510.046 598.31,510.046C595.777,510.046 593.511,510.936 591.511,512.716C589.509,514.496 588.338,516.983 588.009,520.147Z" style="fill:rgb(35,31,32);"/>
    </g>
</svg>
